%TF.GenerationSoftware,KiCad,Pcbnew,10.0.1*%
%TF.CreationDate,2026-04-28T20:18:45+02:00*%
%TF.ProjectId,AmigaPad,416d6967-6150-4616-942e-6b696361645f,1*%
%TF.SameCoordinates,Original*%
%TF.FileFunction,Legend,Top*%
%TF.FilePolarity,Positive*%
%FSLAX46Y46*%
G04 Gerber Fmt 4.6, Leading zero omitted, Abs format (unit mm)*
G04 Created by KiCad (PCBNEW 10.0.1) date 2026-04-28 20:18:45*
%MOMM*%
%LPD*%
G01*
G04 APERTURE LIST*
%ADD10C,0.100000*%
%ADD11C,0.150000*%
%ADD12C,0.120000*%
G04 APERTURE END LIST*
D10*
X144885000Y-130019895D02*
X144885000Y-129219895D01*
X144885000Y-129219895D02*
X145189762Y-129219895D01*
X145189762Y-129219895D02*
X145265952Y-129257990D01*
X145265952Y-129257990D02*
X145304047Y-129296085D01*
X145304047Y-129296085D02*
X145342143Y-129372276D01*
X145342143Y-129372276D02*
X145342143Y-129486561D01*
X145342143Y-129486561D02*
X145304047Y-129562752D01*
X145304047Y-129562752D02*
X145265952Y-129600847D01*
X145265952Y-129600847D02*
X145189762Y-129638942D01*
X145189762Y-129638942D02*
X144885000Y-129638942D01*
X146027857Y-130019895D02*
X146027857Y-129600847D01*
X146027857Y-129600847D02*
X145989762Y-129524657D01*
X145989762Y-129524657D02*
X145913571Y-129486561D01*
X145913571Y-129486561D02*
X145761190Y-129486561D01*
X145761190Y-129486561D02*
X145685000Y-129524657D01*
X146027857Y-129981800D02*
X145951666Y-130019895D01*
X145951666Y-130019895D02*
X145761190Y-130019895D01*
X145761190Y-130019895D02*
X145685000Y-129981800D01*
X145685000Y-129981800D02*
X145646904Y-129905609D01*
X145646904Y-129905609D02*
X145646904Y-129829419D01*
X145646904Y-129829419D02*
X145685000Y-129753228D01*
X145685000Y-129753228D02*
X145761190Y-129715133D01*
X145761190Y-129715133D02*
X145951666Y-129715133D01*
X145951666Y-129715133D02*
X146027857Y-129677038D01*
X146751667Y-129486561D02*
X146751667Y-130019895D01*
X146408810Y-129486561D02*
X146408810Y-129905609D01*
X146408810Y-129905609D02*
X146446905Y-129981800D01*
X146446905Y-129981800D02*
X146523095Y-130019895D01*
X146523095Y-130019895D02*
X146637381Y-130019895D01*
X146637381Y-130019895D02*
X146713572Y-129981800D01*
X146713572Y-129981800D02*
X146751667Y-129943704D01*
X147094524Y-129981800D02*
X147170715Y-130019895D01*
X147170715Y-130019895D02*
X147323096Y-130019895D01*
X147323096Y-130019895D02*
X147399286Y-129981800D01*
X147399286Y-129981800D02*
X147437382Y-129905609D01*
X147437382Y-129905609D02*
X147437382Y-129867514D01*
X147437382Y-129867514D02*
X147399286Y-129791323D01*
X147399286Y-129791323D02*
X147323096Y-129753228D01*
X147323096Y-129753228D02*
X147208810Y-129753228D01*
X147208810Y-129753228D02*
X147132620Y-129715133D01*
X147132620Y-129715133D02*
X147094524Y-129638942D01*
X147094524Y-129638942D02*
X147094524Y-129600847D01*
X147094524Y-129600847D02*
X147132620Y-129524657D01*
X147132620Y-129524657D02*
X147208810Y-129486561D01*
X147208810Y-129486561D02*
X147323096Y-129486561D01*
X147323096Y-129486561D02*
X147399286Y-129524657D01*
X148085001Y-129981800D02*
X148008810Y-130019895D01*
X148008810Y-130019895D02*
X147856429Y-130019895D01*
X147856429Y-130019895D02*
X147780239Y-129981800D01*
X147780239Y-129981800D02*
X147742143Y-129905609D01*
X147742143Y-129905609D02*
X147742143Y-129600847D01*
X147742143Y-129600847D02*
X147780239Y-129524657D01*
X147780239Y-129524657D02*
X147856429Y-129486561D01*
X147856429Y-129486561D02*
X148008810Y-129486561D01*
X148008810Y-129486561D02*
X148085001Y-129524657D01*
X148085001Y-129524657D02*
X148123096Y-129600847D01*
X148123096Y-129600847D02*
X148123096Y-129677038D01*
X148123096Y-129677038D02*
X147742143Y-129753228D01*
X144921904Y-120494895D02*
X144921904Y-119694895D01*
X144921904Y-119694895D02*
X145112380Y-119694895D01*
X145112380Y-119694895D02*
X145226666Y-119732990D01*
X145226666Y-119732990D02*
X145302856Y-119809180D01*
X145302856Y-119809180D02*
X145340951Y-119885371D01*
X145340951Y-119885371D02*
X145379047Y-120037752D01*
X145379047Y-120037752D02*
X145379047Y-120152038D01*
X145379047Y-120152038D02*
X145340951Y-120304419D01*
X145340951Y-120304419D02*
X145302856Y-120380609D01*
X145302856Y-120380609D02*
X145226666Y-120456800D01*
X145226666Y-120456800D02*
X145112380Y-120494895D01*
X145112380Y-120494895D02*
X144921904Y-120494895D01*
X146026666Y-120456800D02*
X145950475Y-120494895D01*
X145950475Y-120494895D02*
X145798094Y-120494895D01*
X145798094Y-120494895D02*
X145721904Y-120456800D01*
X145721904Y-120456800D02*
X145683808Y-120380609D01*
X145683808Y-120380609D02*
X145683808Y-120075847D01*
X145683808Y-120075847D02*
X145721904Y-119999657D01*
X145721904Y-119999657D02*
X145798094Y-119961561D01*
X145798094Y-119961561D02*
X145950475Y-119961561D01*
X145950475Y-119961561D02*
X146026666Y-119999657D01*
X146026666Y-119999657D02*
X146064761Y-120075847D01*
X146064761Y-120075847D02*
X146064761Y-120152038D01*
X146064761Y-120152038D02*
X145683808Y-120228228D01*
X146407618Y-120494895D02*
X146407618Y-119694895D01*
X146407618Y-119999657D02*
X146483808Y-119961561D01*
X146483808Y-119961561D02*
X146636189Y-119961561D01*
X146636189Y-119961561D02*
X146712380Y-119999657D01*
X146712380Y-119999657D02*
X146750475Y-120037752D01*
X146750475Y-120037752D02*
X146788570Y-120113942D01*
X146788570Y-120113942D02*
X146788570Y-120342514D01*
X146788570Y-120342514D02*
X146750475Y-120418704D01*
X146750475Y-120418704D02*
X146712380Y-120456800D01*
X146712380Y-120456800D02*
X146636189Y-120494895D01*
X146636189Y-120494895D02*
X146483808Y-120494895D01*
X146483808Y-120494895D02*
X146407618Y-120456800D01*
X147474285Y-119961561D02*
X147474285Y-120494895D01*
X147131428Y-119961561D02*
X147131428Y-120380609D01*
X147131428Y-120380609D02*
X147169523Y-120456800D01*
X147169523Y-120456800D02*
X147245713Y-120494895D01*
X147245713Y-120494895D02*
X147359999Y-120494895D01*
X147359999Y-120494895D02*
X147436190Y-120456800D01*
X147436190Y-120456800D02*
X147474285Y-120418704D01*
X148198095Y-119961561D02*
X148198095Y-120609180D01*
X148198095Y-120609180D02*
X148160000Y-120685371D01*
X148160000Y-120685371D02*
X148121904Y-120723466D01*
X148121904Y-120723466D02*
X148045714Y-120761561D01*
X148045714Y-120761561D02*
X147931428Y-120761561D01*
X147931428Y-120761561D02*
X147855238Y-120723466D01*
X148198095Y-120456800D02*
X148121904Y-120494895D01*
X148121904Y-120494895D02*
X147969523Y-120494895D01*
X147969523Y-120494895D02*
X147893333Y-120456800D01*
X147893333Y-120456800D02*
X147855238Y-120418704D01*
X147855238Y-120418704D02*
X147817142Y-120342514D01*
X147817142Y-120342514D02*
X147817142Y-120113942D01*
X147817142Y-120113942D02*
X147855238Y-120037752D01*
X147855238Y-120037752D02*
X147893333Y-119999657D01*
X147893333Y-119999657D02*
X147969523Y-119961561D01*
X147969523Y-119961561D02*
X148121904Y-119961561D01*
X148121904Y-119961561D02*
X148198095Y-119999657D01*
X172779285Y-125447990D02*
X172703095Y-125409895D01*
X172703095Y-125409895D02*
X172588809Y-125409895D01*
X172588809Y-125409895D02*
X172474523Y-125447990D01*
X172474523Y-125447990D02*
X172398333Y-125524180D01*
X172398333Y-125524180D02*
X172360238Y-125600371D01*
X172360238Y-125600371D02*
X172322142Y-125752752D01*
X172322142Y-125752752D02*
X172322142Y-125867038D01*
X172322142Y-125867038D02*
X172360238Y-126019419D01*
X172360238Y-126019419D02*
X172398333Y-126095609D01*
X172398333Y-126095609D02*
X172474523Y-126171800D01*
X172474523Y-126171800D02*
X172588809Y-126209895D01*
X172588809Y-126209895D02*
X172665000Y-126209895D01*
X172665000Y-126209895D02*
X172779285Y-126171800D01*
X172779285Y-126171800D02*
X172817381Y-126133704D01*
X172817381Y-126133704D02*
X172817381Y-125867038D01*
X172817381Y-125867038D02*
X172665000Y-125867038D01*
X173160238Y-126209895D02*
X173160238Y-125676561D01*
X173160238Y-125828942D02*
X173198333Y-125752752D01*
X173198333Y-125752752D02*
X173236428Y-125714657D01*
X173236428Y-125714657D02*
X173312619Y-125676561D01*
X173312619Y-125676561D02*
X173388809Y-125676561D01*
X173960238Y-126171800D02*
X173884047Y-126209895D01*
X173884047Y-126209895D02*
X173731666Y-126209895D01*
X173731666Y-126209895D02*
X173655476Y-126171800D01*
X173655476Y-126171800D02*
X173617380Y-126095609D01*
X173617380Y-126095609D02*
X173617380Y-125790847D01*
X173617380Y-125790847D02*
X173655476Y-125714657D01*
X173655476Y-125714657D02*
X173731666Y-125676561D01*
X173731666Y-125676561D02*
X173884047Y-125676561D01*
X173884047Y-125676561D02*
X173960238Y-125714657D01*
X173960238Y-125714657D02*
X173998333Y-125790847D01*
X173998333Y-125790847D02*
X173998333Y-125867038D01*
X173998333Y-125867038D02*
X173617380Y-125943228D01*
X174645952Y-126171800D02*
X174569761Y-126209895D01*
X174569761Y-126209895D02*
X174417380Y-126209895D01*
X174417380Y-126209895D02*
X174341190Y-126171800D01*
X174341190Y-126171800D02*
X174303094Y-126095609D01*
X174303094Y-126095609D02*
X174303094Y-125790847D01*
X174303094Y-125790847D02*
X174341190Y-125714657D01*
X174341190Y-125714657D02*
X174417380Y-125676561D01*
X174417380Y-125676561D02*
X174569761Y-125676561D01*
X174569761Y-125676561D02*
X174645952Y-125714657D01*
X174645952Y-125714657D02*
X174684047Y-125790847D01*
X174684047Y-125790847D02*
X174684047Y-125867038D01*
X174684047Y-125867038D02*
X174303094Y-125943228D01*
X175026904Y-125676561D02*
X175026904Y-126209895D01*
X175026904Y-125752752D02*
X175064999Y-125714657D01*
X175064999Y-125714657D02*
X175141189Y-125676561D01*
X175141189Y-125676561D02*
X175255475Y-125676561D01*
X175255475Y-125676561D02*
X175331666Y-125714657D01*
X175331666Y-125714657D02*
X175369761Y-125790847D01*
X175369761Y-125790847D02*
X175369761Y-126209895D01*
X173407857Y-136369895D02*
X173141190Y-135988942D01*
X172950714Y-136369895D02*
X172950714Y-135569895D01*
X172950714Y-135569895D02*
X173255476Y-135569895D01*
X173255476Y-135569895D02*
X173331666Y-135607990D01*
X173331666Y-135607990D02*
X173369761Y-135646085D01*
X173369761Y-135646085D02*
X173407857Y-135722276D01*
X173407857Y-135722276D02*
X173407857Y-135836561D01*
X173407857Y-135836561D02*
X173369761Y-135912752D01*
X173369761Y-135912752D02*
X173331666Y-135950847D01*
X173331666Y-135950847D02*
X173255476Y-135988942D01*
X173255476Y-135988942D02*
X172950714Y-135988942D01*
X174055476Y-136331800D02*
X173979285Y-136369895D01*
X173979285Y-136369895D02*
X173826904Y-136369895D01*
X173826904Y-136369895D02*
X173750714Y-136331800D01*
X173750714Y-136331800D02*
X173712618Y-136255609D01*
X173712618Y-136255609D02*
X173712618Y-135950847D01*
X173712618Y-135950847D02*
X173750714Y-135874657D01*
X173750714Y-135874657D02*
X173826904Y-135836561D01*
X173826904Y-135836561D02*
X173979285Y-135836561D01*
X173979285Y-135836561D02*
X174055476Y-135874657D01*
X174055476Y-135874657D02*
X174093571Y-135950847D01*
X174093571Y-135950847D02*
X174093571Y-136027038D01*
X174093571Y-136027038D02*
X173712618Y-136103228D01*
X174779285Y-136369895D02*
X174779285Y-135569895D01*
X174779285Y-136331800D02*
X174703094Y-136369895D01*
X174703094Y-136369895D02*
X174550713Y-136369895D01*
X174550713Y-136369895D02*
X174474523Y-136331800D01*
X174474523Y-136331800D02*
X174436428Y-136293704D01*
X174436428Y-136293704D02*
X174398332Y-136217514D01*
X174398332Y-136217514D02*
X174398332Y-135988942D01*
X174398332Y-135988942D02*
X174436428Y-135912752D01*
X174436428Y-135912752D02*
X174474523Y-135874657D01*
X174474523Y-135874657D02*
X174550713Y-135836561D01*
X174550713Y-135836561D02*
X174703094Y-135836561D01*
X174703094Y-135836561D02*
X174779285Y-135874657D01*
X183752143Y-122653942D02*
X183752143Y-123034895D01*
X183485476Y-122234895D02*
X183752143Y-122653942D01*
X183752143Y-122653942D02*
X184018809Y-122234895D01*
X184590238Y-122996800D02*
X184514047Y-123034895D01*
X184514047Y-123034895D02*
X184361666Y-123034895D01*
X184361666Y-123034895D02*
X184285476Y-122996800D01*
X184285476Y-122996800D02*
X184247380Y-122920609D01*
X184247380Y-122920609D02*
X184247380Y-122615847D01*
X184247380Y-122615847D02*
X184285476Y-122539657D01*
X184285476Y-122539657D02*
X184361666Y-122501561D01*
X184361666Y-122501561D02*
X184514047Y-122501561D01*
X184514047Y-122501561D02*
X184590238Y-122539657D01*
X184590238Y-122539657D02*
X184628333Y-122615847D01*
X184628333Y-122615847D02*
X184628333Y-122692038D01*
X184628333Y-122692038D02*
X184247380Y-122768228D01*
X185085475Y-123034895D02*
X185009285Y-122996800D01*
X185009285Y-122996800D02*
X184971190Y-122920609D01*
X184971190Y-122920609D02*
X184971190Y-122234895D01*
X185504523Y-123034895D02*
X185428333Y-122996800D01*
X185428333Y-122996800D02*
X185390238Y-122920609D01*
X185390238Y-122920609D02*
X185390238Y-122234895D01*
X185923571Y-123034895D02*
X185847381Y-122996800D01*
X185847381Y-122996800D02*
X185809286Y-122958704D01*
X185809286Y-122958704D02*
X185771190Y-122882514D01*
X185771190Y-122882514D02*
X185771190Y-122653942D01*
X185771190Y-122653942D02*
X185809286Y-122577752D01*
X185809286Y-122577752D02*
X185847381Y-122539657D01*
X185847381Y-122539657D02*
X185923571Y-122501561D01*
X185923571Y-122501561D02*
X186037857Y-122501561D01*
X186037857Y-122501561D02*
X186114048Y-122539657D01*
X186114048Y-122539657D02*
X186152143Y-122577752D01*
X186152143Y-122577752D02*
X186190238Y-122653942D01*
X186190238Y-122653942D02*
X186190238Y-122882514D01*
X186190238Y-122882514D02*
X186152143Y-122958704D01*
X186152143Y-122958704D02*
X186114048Y-122996800D01*
X186114048Y-122996800D02*
X186037857Y-123034895D01*
X186037857Y-123034895D02*
X185923571Y-123034895D01*
X186456905Y-122501561D02*
X186609286Y-123034895D01*
X186609286Y-123034895D02*
X186761667Y-122653942D01*
X186761667Y-122653942D02*
X186914048Y-123034895D01*
X186914048Y-123034895D02*
X187066429Y-122501561D01*
X184437856Y-132775847D02*
X184552142Y-132813942D01*
X184552142Y-132813942D02*
X184590237Y-132852038D01*
X184590237Y-132852038D02*
X184628333Y-132928228D01*
X184628333Y-132928228D02*
X184628333Y-133042514D01*
X184628333Y-133042514D02*
X184590237Y-133118704D01*
X184590237Y-133118704D02*
X184552142Y-133156800D01*
X184552142Y-133156800D02*
X184475952Y-133194895D01*
X184475952Y-133194895D02*
X184171190Y-133194895D01*
X184171190Y-133194895D02*
X184171190Y-132394895D01*
X184171190Y-132394895D02*
X184437856Y-132394895D01*
X184437856Y-132394895D02*
X184514047Y-132432990D01*
X184514047Y-132432990D02*
X184552142Y-132471085D01*
X184552142Y-132471085D02*
X184590237Y-132547276D01*
X184590237Y-132547276D02*
X184590237Y-132623466D01*
X184590237Y-132623466D02*
X184552142Y-132699657D01*
X184552142Y-132699657D02*
X184514047Y-132737752D01*
X184514047Y-132737752D02*
X184437856Y-132775847D01*
X184437856Y-132775847D02*
X184171190Y-132775847D01*
X185085475Y-133194895D02*
X185009285Y-133156800D01*
X185009285Y-133156800D02*
X184971190Y-133080609D01*
X184971190Y-133080609D02*
X184971190Y-132394895D01*
X185733095Y-132661561D02*
X185733095Y-133194895D01*
X185390238Y-132661561D02*
X185390238Y-133080609D01*
X185390238Y-133080609D02*
X185428333Y-133156800D01*
X185428333Y-133156800D02*
X185504523Y-133194895D01*
X185504523Y-133194895D02*
X185618809Y-133194895D01*
X185618809Y-133194895D02*
X185695000Y-133156800D01*
X185695000Y-133156800D02*
X185733095Y-133118704D01*
X186418810Y-133156800D02*
X186342619Y-133194895D01*
X186342619Y-133194895D02*
X186190238Y-133194895D01*
X186190238Y-133194895D02*
X186114048Y-133156800D01*
X186114048Y-133156800D02*
X186075952Y-133080609D01*
X186075952Y-133080609D02*
X186075952Y-132775847D01*
X186075952Y-132775847D02*
X186114048Y-132699657D01*
X186114048Y-132699657D02*
X186190238Y-132661561D01*
X186190238Y-132661561D02*
X186342619Y-132661561D01*
X186342619Y-132661561D02*
X186418810Y-132699657D01*
X186418810Y-132699657D02*
X186456905Y-132775847D01*
X186456905Y-132775847D02*
X186456905Y-132852038D01*
X186456905Y-132852038D02*
X186075952Y-132928228D01*
X107486265Y-139401704D02*
X107962455Y-139401704D01*
X107391027Y-139687419D02*
X107724360Y-138687419D01*
X107724360Y-138687419D02*
X108057693Y-139687419D01*
X108391027Y-139687419D02*
X108391027Y-139020752D01*
X108391027Y-139115990D02*
X108438646Y-139068371D01*
X108438646Y-139068371D02*
X108533884Y-139020752D01*
X108533884Y-139020752D02*
X108676741Y-139020752D01*
X108676741Y-139020752D02*
X108771979Y-139068371D01*
X108771979Y-139068371D02*
X108819598Y-139163609D01*
X108819598Y-139163609D02*
X108819598Y-139687419D01*
X108819598Y-139163609D02*
X108867217Y-139068371D01*
X108867217Y-139068371D02*
X108962455Y-139020752D01*
X108962455Y-139020752D02*
X109105312Y-139020752D01*
X109105312Y-139020752D02*
X109200551Y-139068371D01*
X109200551Y-139068371D02*
X109248170Y-139163609D01*
X109248170Y-139163609D02*
X109248170Y-139687419D01*
X109724360Y-139687419D02*
X109724360Y-139020752D01*
X109724360Y-138687419D02*
X109676741Y-138735038D01*
X109676741Y-138735038D02*
X109724360Y-138782657D01*
X109724360Y-138782657D02*
X109771979Y-138735038D01*
X109771979Y-138735038D02*
X109724360Y-138687419D01*
X109724360Y-138687419D02*
X109724360Y-138782657D01*
X110629121Y-139020752D02*
X110629121Y-139830276D01*
X110629121Y-139830276D02*
X110581502Y-139925514D01*
X110581502Y-139925514D02*
X110533883Y-139973133D01*
X110533883Y-139973133D02*
X110438645Y-140020752D01*
X110438645Y-140020752D02*
X110295788Y-140020752D01*
X110295788Y-140020752D02*
X110200550Y-139973133D01*
X110629121Y-139639800D02*
X110533883Y-139687419D01*
X110533883Y-139687419D02*
X110343407Y-139687419D01*
X110343407Y-139687419D02*
X110248169Y-139639800D01*
X110248169Y-139639800D02*
X110200550Y-139592180D01*
X110200550Y-139592180D02*
X110152931Y-139496942D01*
X110152931Y-139496942D02*
X110152931Y-139211228D01*
X110152931Y-139211228D02*
X110200550Y-139115990D01*
X110200550Y-139115990D02*
X110248169Y-139068371D01*
X110248169Y-139068371D02*
X110343407Y-139020752D01*
X110343407Y-139020752D02*
X110533883Y-139020752D01*
X110533883Y-139020752D02*
X110629121Y-139068371D01*
X111533883Y-139687419D02*
X111533883Y-139163609D01*
X111533883Y-139163609D02*
X111486264Y-139068371D01*
X111486264Y-139068371D02*
X111391026Y-139020752D01*
X111391026Y-139020752D02*
X111200550Y-139020752D01*
X111200550Y-139020752D02*
X111105312Y-139068371D01*
X111533883Y-139639800D02*
X111438645Y-139687419D01*
X111438645Y-139687419D02*
X111200550Y-139687419D01*
X111200550Y-139687419D02*
X111105312Y-139639800D01*
X111105312Y-139639800D02*
X111057693Y-139544561D01*
X111057693Y-139544561D02*
X111057693Y-139449323D01*
X111057693Y-139449323D02*
X111105312Y-139354085D01*
X111105312Y-139354085D02*
X111200550Y-139306466D01*
X111200550Y-139306466D02*
X111438645Y-139306466D01*
X111438645Y-139306466D02*
X111533883Y-139258847D01*
X112771979Y-139687419D02*
X112771979Y-138687419D01*
X112771979Y-138687419D02*
X113105312Y-139401704D01*
X113105312Y-139401704D02*
X113438645Y-138687419D01*
X113438645Y-138687419D02*
X113438645Y-139687419D01*
X113914836Y-139687419D02*
X113914836Y-139020752D01*
X113914836Y-138687419D02*
X113867217Y-138735038D01*
X113867217Y-138735038D02*
X113914836Y-138782657D01*
X113914836Y-138782657D02*
X113962455Y-138735038D01*
X113962455Y-138735038D02*
X113914836Y-138687419D01*
X113914836Y-138687419D02*
X113914836Y-138782657D01*
X114391026Y-139020752D02*
X114391026Y-139687419D01*
X114391026Y-139115990D02*
X114438645Y-139068371D01*
X114438645Y-139068371D02*
X114533883Y-139020752D01*
X114533883Y-139020752D02*
X114676740Y-139020752D01*
X114676740Y-139020752D02*
X114771978Y-139068371D01*
X114771978Y-139068371D02*
X114819597Y-139163609D01*
X114819597Y-139163609D02*
X114819597Y-139687419D01*
X115295788Y-139687419D02*
X115295788Y-139020752D01*
X115295788Y-138687419D02*
X115248169Y-138735038D01*
X115248169Y-138735038D02*
X115295788Y-138782657D01*
X115295788Y-138782657D02*
X115343407Y-138735038D01*
X115343407Y-138735038D02*
X115295788Y-138687419D01*
X115295788Y-138687419D02*
X115295788Y-138782657D01*
X116533883Y-139687419D02*
X116533883Y-138687419D01*
X116533883Y-138687419D02*
X116914835Y-138687419D01*
X116914835Y-138687419D02*
X117010073Y-138735038D01*
X117010073Y-138735038D02*
X117057692Y-138782657D01*
X117057692Y-138782657D02*
X117105311Y-138877895D01*
X117105311Y-138877895D02*
X117105311Y-139020752D01*
X117105311Y-139020752D02*
X117057692Y-139115990D01*
X117057692Y-139115990D02*
X117010073Y-139163609D01*
X117010073Y-139163609D02*
X116914835Y-139211228D01*
X116914835Y-139211228D02*
X116533883Y-139211228D01*
X117962454Y-139687419D02*
X117962454Y-139163609D01*
X117962454Y-139163609D02*
X117914835Y-139068371D01*
X117914835Y-139068371D02*
X117819597Y-139020752D01*
X117819597Y-139020752D02*
X117629121Y-139020752D01*
X117629121Y-139020752D02*
X117533883Y-139068371D01*
X117962454Y-139639800D02*
X117867216Y-139687419D01*
X117867216Y-139687419D02*
X117629121Y-139687419D01*
X117629121Y-139687419D02*
X117533883Y-139639800D01*
X117533883Y-139639800D02*
X117486264Y-139544561D01*
X117486264Y-139544561D02*
X117486264Y-139449323D01*
X117486264Y-139449323D02*
X117533883Y-139354085D01*
X117533883Y-139354085D02*
X117629121Y-139306466D01*
X117629121Y-139306466D02*
X117867216Y-139306466D01*
X117867216Y-139306466D02*
X117962454Y-139258847D01*
X118867216Y-139687419D02*
X118867216Y-138687419D01*
X118867216Y-139639800D02*
X118771978Y-139687419D01*
X118771978Y-139687419D02*
X118581502Y-139687419D01*
X118581502Y-139687419D02*
X118486264Y-139639800D01*
X118486264Y-139639800D02*
X118438645Y-139592180D01*
X118438645Y-139592180D02*
X118391026Y-139496942D01*
X118391026Y-139496942D02*
X118391026Y-139211228D01*
X118391026Y-139211228D02*
X118438645Y-139115990D01*
X118438645Y-139115990D02*
X118486264Y-139068371D01*
X118486264Y-139068371D02*
X118581502Y-139020752D01*
X118581502Y-139020752D02*
X118771978Y-139020752D01*
X118771978Y-139020752D02*
X118867216Y-139068371D01*
X120629121Y-139687419D02*
X120057693Y-139687419D01*
X120343407Y-139687419D02*
X120343407Y-138687419D01*
X120343407Y-138687419D02*
X120248169Y-138830276D01*
X120248169Y-138830276D02*
X120152931Y-138925514D01*
X120152931Y-138925514D02*
X120057693Y-138973133D01*
X121057693Y-139592180D02*
X121105312Y-139639800D01*
X121105312Y-139639800D02*
X121057693Y-139687419D01*
X121057693Y-139687419D02*
X121010074Y-139639800D01*
X121010074Y-139639800D02*
X121057693Y-139592180D01*
X121057693Y-139592180D02*
X121057693Y-139687419D01*
X122057692Y-139687419D02*
X121486264Y-139687419D01*
X121771978Y-139687419D02*
X121771978Y-138687419D01*
X121771978Y-138687419D02*
X121676740Y-138830276D01*
X121676740Y-138830276D02*
X121581502Y-138925514D01*
X121581502Y-138925514D02*
X121486264Y-138973133D01*
X130777419Y-134431115D02*
X131586942Y-134431115D01*
X131586942Y-134431115D02*
X131682180Y-134383496D01*
X131682180Y-134383496D02*
X131729800Y-134335877D01*
X131729800Y-134335877D02*
X131777419Y-134240639D01*
X131777419Y-134240639D02*
X131777419Y-134050163D01*
X131777419Y-134050163D02*
X131729800Y-133954925D01*
X131729800Y-133954925D02*
X131682180Y-133907306D01*
X131682180Y-133907306D02*
X131586942Y-133859687D01*
X131586942Y-133859687D02*
X130777419Y-133859687D01*
X131110752Y-133383496D02*
X132110752Y-133383496D01*
X131158371Y-133383496D02*
X131110752Y-133288258D01*
X131110752Y-133288258D02*
X131110752Y-133097782D01*
X131110752Y-133097782D02*
X131158371Y-133002544D01*
X131158371Y-133002544D02*
X131205990Y-132954925D01*
X131205990Y-132954925D02*
X131301228Y-132907306D01*
X131301228Y-132907306D02*
X131586942Y-132907306D01*
X131586942Y-132907306D02*
X131682180Y-132954925D01*
X131682180Y-132954925D02*
X131729800Y-133002544D01*
X131729800Y-133002544D02*
X131777419Y-133097782D01*
X131777419Y-133097782D02*
X131777419Y-133288258D01*
X131777419Y-133288258D02*
X131729800Y-133383496D01*
X134317419Y-134431115D02*
X133317419Y-134431115D01*
X133317419Y-134431115D02*
X133317419Y-134193020D01*
X133317419Y-134193020D02*
X133365038Y-134050163D01*
X133365038Y-134050163D02*
X133460276Y-133954925D01*
X133460276Y-133954925D02*
X133555514Y-133907306D01*
X133555514Y-133907306D02*
X133745990Y-133859687D01*
X133745990Y-133859687D02*
X133888847Y-133859687D01*
X133888847Y-133859687D02*
X134079323Y-133907306D01*
X134079323Y-133907306D02*
X134174561Y-133954925D01*
X134174561Y-133954925D02*
X134269800Y-134050163D01*
X134269800Y-134050163D02*
X134317419Y-134193020D01*
X134317419Y-134193020D02*
X134317419Y-134431115D01*
X134317419Y-133288258D02*
X134269800Y-133383496D01*
X134269800Y-133383496D02*
X134222180Y-133431115D01*
X134222180Y-133431115D02*
X134126942Y-133478734D01*
X134126942Y-133478734D02*
X133841228Y-133478734D01*
X133841228Y-133478734D02*
X133745990Y-133431115D01*
X133745990Y-133431115D02*
X133698371Y-133383496D01*
X133698371Y-133383496D02*
X133650752Y-133288258D01*
X133650752Y-133288258D02*
X133650752Y-133145401D01*
X133650752Y-133145401D02*
X133698371Y-133050163D01*
X133698371Y-133050163D02*
X133745990Y-133002544D01*
X133745990Y-133002544D02*
X133841228Y-132954925D01*
X133841228Y-132954925D02*
X134126942Y-132954925D01*
X134126942Y-132954925D02*
X134222180Y-133002544D01*
X134222180Y-133002544D02*
X134269800Y-133050163D01*
X134269800Y-133050163D02*
X134317419Y-133145401D01*
X134317419Y-133145401D02*
X134317419Y-133288258D01*
X133650752Y-132621591D02*
X134317419Y-132431115D01*
X134317419Y-132431115D02*
X133841228Y-132240639D01*
X133841228Y-132240639D02*
X134317419Y-132050163D01*
X134317419Y-132050163D02*
X133650752Y-131859687D01*
X133650752Y-131478734D02*
X134317419Y-131478734D01*
X133745990Y-131478734D02*
X133698371Y-131431115D01*
X133698371Y-131431115D02*
X133650752Y-131335877D01*
X133650752Y-131335877D02*
X133650752Y-131193020D01*
X133650752Y-131193020D02*
X133698371Y-131097782D01*
X133698371Y-131097782D02*
X133793609Y-131050163D01*
X133793609Y-131050163D02*
X134317419Y-131050163D01*
X136857419Y-133954925D02*
X136857419Y-134431115D01*
X136857419Y-134431115D02*
X135857419Y-134431115D01*
X136809800Y-133240639D02*
X136857419Y-133335877D01*
X136857419Y-133335877D02*
X136857419Y-133526353D01*
X136857419Y-133526353D02*
X136809800Y-133621591D01*
X136809800Y-133621591D02*
X136714561Y-133669210D01*
X136714561Y-133669210D02*
X136333609Y-133669210D01*
X136333609Y-133669210D02*
X136238371Y-133621591D01*
X136238371Y-133621591D02*
X136190752Y-133526353D01*
X136190752Y-133526353D02*
X136190752Y-133335877D01*
X136190752Y-133335877D02*
X136238371Y-133240639D01*
X136238371Y-133240639D02*
X136333609Y-133193020D01*
X136333609Y-133193020D02*
X136428847Y-133193020D01*
X136428847Y-133193020D02*
X136524085Y-133669210D01*
X136190752Y-132907305D02*
X136190752Y-132526353D01*
X136857419Y-132764448D02*
X136000276Y-132764448D01*
X136000276Y-132764448D02*
X135905038Y-132716829D01*
X135905038Y-132716829D02*
X135857419Y-132621591D01*
X135857419Y-132621591D02*
X135857419Y-132526353D01*
X136190752Y-132335876D02*
X136190752Y-131954924D01*
X135857419Y-132193019D02*
X136714561Y-132193019D01*
X136714561Y-132193019D02*
X136809800Y-132145400D01*
X136809800Y-132145400D02*
X136857419Y-132050162D01*
X136857419Y-132050162D02*
X136857419Y-131954924D01*
X139397419Y-133859687D02*
X138921228Y-134193020D01*
X139397419Y-134431115D02*
X138397419Y-134431115D01*
X138397419Y-134431115D02*
X138397419Y-134050163D01*
X138397419Y-134050163D02*
X138445038Y-133954925D01*
X138445038Y-133954925D02*
X138492657Y-133907306D01*
X138492657Y-133907306D02*
X138587895Y-133859687D01*
X138587895Y-133859687D02*
X138730752Y-133859687D01*
X138730752Y-133859687D02*
X138825990Y-133907306D01*
X138825990Y-133907306D02*
X138873609Y-133954925D01*
X138873609Y-133954925D02*
X138921228Y-134050163D01*
X138921228Y-134050163D02*
X138921228Y-134431115D01*
X139397419Y-133431115D02*
X138730752Y-133431115D01*
X138397419Y-133431115D02*
X138445038Y-133478734D01*
X138445038Y-133478734D02*
X138492657Y-133431115D01*
X138492657Y-133431115D02*
X138445038Y-133383496D01*
X138445038Y-133383496D02*
X138397419Y-133431115D01*
X138397419Y-133431115D02*
X138492657Y-133431115D01*
X138730752Y-132526354D02*
X139540276Y-132526354D01*
X139540276Y-132526354D02*
X139635514Y-132573973D01*
X139635514Y-132573973D02*
X139683133Y-132621592D01*
X139683133Y-132621592D02*
X139730752Y-132716830D01*
X139730752Y-132716830D02*
X139730752Y-132859687D01*
X139730752Y-132859687D02*
X139683133Y-132954925D01*
X139349800Y-132526354D02*
X139397419Y-132621592D01*
X139397419Y-132621592D02*
X139397419Y-132812068D01*
X139397419Y-132812068D02*
X139349800Y-132907306D01*
X139349800Y-132907306D02*
X139302180Y-132954925D01*
X139302180Y-132954925D02*
X139206942Y-133002544D01*
X139206942Y-133002544D02*
X138921228Y-133002544D01*
X138921228Y-133002544D02*
X138825990Y-132954925D01*
X138825990Y-132954925D02*
X138778371Y-132907306D01*
X138778371Y-132907306D02*
X138730752Y-132812068D01*
X138730752Y-132812068D02*
X138730752Y-132621592D01*
X138730752Y-132621592D02*
X138778371Y-132526354D01*
X139397419Y-132050163D02*
X138397419Y-132050163D01*
X139397419Y-131621592D02*
X138873609Y-131621592D01*
X138873609Y-131621592D02*
X138778371Y-131669211D01*
X138778371Y-131669211D02*
X138730752Y-131764449D01*
X138730752Y-131764449D02*
X138730752Y-131907306D01*
X138730752Y-131907306D02*
X138778371Y-132002544D01*
X138778371Y-132002544D02*
X138825990Y-132050163D01*
X138730752Y-131288258D02*
X138730752Y-130907306D01*
X138397419Y-131145401D02*
X139254561Y-131145401D01*
X139254561Y-131145401D02*
X139349800Y-131097782D01*
X139349800Y-131097782D02*
X139397419Y-131002544D01*
X139397419Y-131002544D02*
X139397419Y-130907306D01*
X141937419Y-134431115D02*
X140937419Y-134431115D01*
X140937419Y-134431115D02*
X140937419Y-134193020D01*
X140937419Y-134193020D02*
X140985038Y-134050163D01*
X140985038Y-134050163D02*
X141080276Y-133954925D01*
X141080276Y-133954925D02*
X141175514Y-133907306D01*
X141175514Y-133907306D02*
X141365990Y-133859687D01*
X141365990Y-133859687D02*
X141508847Y-133859687D01*
X141508847Y-133859687D02*
X141699323Y-133907306D01*
X141699323Y-133907306D02*
X141794561Y-133954925D01*
X141794561Y-133954925D02*
X141889800Y-134050163D01*
X141889800Y-134050163D02*
X141937419Y-134193020D01*
X141937419Y-134193020D02*
X141937419Y-134431115D01*
X141889800Y-133050163D02*
X141937419Y-133145401D01*
X141937419Y-133145401D02*
X141937419Y-133335877D01*
X141937419Y-133335877D02*
X141889800Y-133431115D01*
X141889800Y-133431115D02*
X141794561Y-133478734D01*
X141794561Y-133478734D02*
X141413609Y-133478734D01*
X141413609Y-133478734D02*
X141318371Y-133431115D01*
X141318371Y-133431115D02*
X141270752Y-133335877D01*
X141270752Y-133335877D02*
X141270752Y-133145401D01*
X141270752Y-133145401D02*
X141318371Y-133050163D01*
X141318371Y-133050163D02*
X141413609Y-133002544D01*
X141413609Y-133002544D02*
X141508847Y-133002544D01*
X141508847Y-133002544D02*
X141604085Y-133478734D01*
X141937419Y-132573972D02*
X140937419Y-132573972D01*
X141318371Y-132573972D02*
X141270752Y-132478734D01*
X141270752Y-132478734D02*
X141270752Y-132288258D01*
X141270752Y-132288258D02*
X141318371Y-132193020D01*
X141318371Y-132193020D02*
X141365990Y-132145401D01*
X141365990Y-132145401D02*
X141461228Y-132097782D01*
X141461228Y-132097782D02*
X141746942Y-132097782D01*
X141746942Y-132097782D02*
X141842180Y-132145401D01*
X141842180Y-132145401D02*
X141889800Y-132193020D01*
X141889800Y-132193020D02*
X141937419Y-132288258D01*
X141937419Y-132288258D02*
X141937419Y-132478734D01*
X141937419Y-132478734D02*
X141889800Y-132573972D01*
X141270752Y-131240639D02*
X141937419Y-131240639D01*
X141270752Y-131669210D02*
X141794561Y-131669210D01*
X141794561Y-131669210D02*
X141889800Y-131621591D01*
X141889800Y-131621591D02*
X141937419Y-131526353D01*
X141937419Y-131526353D02*
X141937419Y-131383496D01*
X141937419Y-131383496D02*
X141889800Y-131288258D01*
X141889800Y-131288258D02*
X141842180Y-131240639D01*
X141270752Y-130335877D02*
X142080276Y-130335877D01*
X142080276Y-130335877D02*
X142175514Y-130383496D01*
X142175514Y-130383496D02*
X142223133Y-130431115D01*
X142223133Y-130431115D02*
X142270752Y-130526353D01*
X142270752Y-130526353D02*
X142270752Y-130669210D01*
X142270752Y-130669210D02*
X142223133Y-130764448D01*
X141889800Y-130335877D02*
X141937419Y-130431115D01*
X141937419Y-130431115D02*
X141937419Y-130621591D01*
X141937419Y-130621591D02*
X141889800Y-130716829D01*
X141889800Y-130716829D02*
X141842180Y-130764448D01*
X141842180Y-130764448D02*
X141746942Y-130812067D01*
X141746942Y-130812067D02*
X141461228Y-130812067D01*
X141461228Y-130812067D02*
X141365990Y-130764448D01*
X141365990Y-130764448D02*
X141318371Y-130716829D01*
X141318371Y-130716829D02*
X141270752Y-130621591D01*
X141270752Y-130621591D02*
X141270752Y-130431115D01*
X141270752Y-130431115D02*
X141318371Y-130335877D01*
X144477419Y-134431115D02*
X143477419Y-134431115D01*
X143477419Y-134431115D02*
X143477419Y-134050163D01*
X143477419Y-134050163D02*
X143525038Y-133954925D01*
X143525038Y-133954925D02*
X143572657Y-133907306D01*
X143572657Y-133907306D02*
X143667895Y-133859687D01*
X143667895Y-133859687D02*
X143810752Y-133859687D01*
X143810752Y-133859687D02*
X143905990Y-133907306D01*
X143905990Y-133907306D02*
X143953609Y-133954925D01*
X143953609Y-133954925D02*
X144001228Y-134050163D01*
X144001228Y-134050163D02*
X144001228Y-134431115D01*
X144477419Y-133002544D02*
X143953609Y-133002544D01*
X143953609Y-133002544D02*
X143858371Y-133050163D01*
X143858371Y-133050163D02*
X143810752Y-133145401D01*
X143810752Y-133145401D02*
X143810752Y-133335877D01*
X143810752Y-133335877D02*
X143858371Y-133431115D01*
X144429800Y-133002544D02*
X144477419Y-133097782D01*
X144477419Y-133097782D02*
X144477419Y-133335877D01*
X144477419Y-133335877D02*
X144429800Y-133431115D01*
X144429800Y-133431115D02*
X144334561Y-133478734D01*
X144334561Y-133478734D02*
X144239323Y-133478734D01*
X144239323Y-133478734D02*
X144144085Y-133431115D01*
X144144085Y-133431115D02*
X144096466Y-133335877D01*
X144096466Y-133335877D02*
X144096466Y-133097782D01*
X144096466Y-133097782D02*
X144048847Y-133002544D01*
X143810752Y-132097782D02*
X144477419Y-132097782D01*
X143810752Y-132526353D02*
X144334561Y-132526353D01*
X144334561Y-132526353D02*
X144429800Y-132478734D01*
X144429800Y-132478734D02*
X144477419Y-132383496D01*
X144477419Y-132383496D02*
X144477419Y-132240639D01*
X144477419Y-132240639D02*
X144429800Y-132145401D01*
X144429800Y-132145401D02*
X144382180Y-132097782D01*
X144429800Y-131669210D02*
X144477419Y-131573972D01*
X144477419Y-131573972D02*
X144477419Y-131383496D01*
X144477419Y-131383496D02*
X144429800Y-131288258D01*
X144429800Y-131288258D02*
X144334561Y-131240639D01*
X144334561Y-131240639D02*
X144286942Y-131240639D01*
X144286942Y-131240639D02*
X144191704Y-131288258D01*
X144191704Y-131288258D02*
X144144085Y-131383496D01*
X144144085Y-131383496D02*
X144144085Y-131526353D01*
X144144085Y-131526353D02*
X144096466Y-131621591D01*
X144096466Y-131621591D02*
X144001228Y-131669210D01*
X144001228Y-131669210D02*
X143953609Y-131669210D01*
X143953609Y-131669210D02*
X143858371Y-131621591D01*
X143858371Y-131621591D02*
X143810752Y-131526353D01*
X143810752Y-131526353D02*
X143810752Y-131383496D01*
X143810752Y-131383496D02*
X143858371Y-131288258D01*
X144429800Y-130431115D02*
X144477419Y-130526353D01*
X144477419Y-130526353D02*
X144477419Y-130716829D01*
X144477419Y-130716829D02*
X144429800Y-130812067D01*
X144429800Y-130812067D02*
X144334561Y-130859686D01*
X144334561Y-130859686D02*
X143953609Y-130859686D01*
X143953609Y-130859686D02*
X143858371Y-130812067D01*
X143858371Y-130812067D02*
X143810752Y-130716829D01*
X143810752Y-130716829D02*
X143810752Y-130526353D01*
X143810752Y-130526353D02*
X143858371Y-130431115D01*
X143858371Y-130431115D02*
X143953609Y-130383496D01*
X143953609Y-130383496D02*
X144048847Y-130383496D01*
X144048847Y-130383496D02*
X144144085Y-130859686D01*
X147017419Y-133954925D02*
X147017419Y-134431115D01*
X147017419Y-134431115D02*
X146017419Y-134431115D01*
X146969800Y-133669210D02*
X147017419Y-133526353D01*
X147017419Y-133526353D02*
X147017419Y-133288258D01*
X147017419Y-133288258D02*
X146969800Y-133193020D01*
X146969800Y-133193020D02*
X146922180Y-133145401D01*
X146922180Y-133145401D02*
X146826942Y-133097782D01*
X146826942Y-133097782D02*
X146731704Y-133097782D01*
X146731704Y-133097782D02*
X146636466Y-133145401D01*
X146636466Y-133145401D02*
X146588847Y-133193020D01*
X146588847Y-133193020D02*
X146541228Y-133288258D01*
X146541228Y-133288258D02*
X146493609Y-133478734D01*
X146493609Y-133478734D02*
X146445990Y-133573972D01*
X146445990Y-133573972D02*
X146398371Y-133621591D01*
X146398371Y-133621591D02*
X146303133Y-133669210D01*
X146303133Y-133669210D02*
X146207895Y-133669210D01*
X146207895Y-133669210D02*
X146112657Y-133621591D01*
X146112657Y-133621591D02*
X146065038Y-133573972D01*
X146065038Y-133573972D02*
X146017419Y-133478734D01*
X146017419Y-133478734D02*
X146017419Y-133240639D01*
X146017419Y-133240639D02*
X146065038Y-133097782D01*
X149557419Y-133859687D02*
X149081228Y-134193020D01*
X149557419Y-134431115D02*
X148557419Y-134431115D01*
X148557419Y-134431115D02*
X148557419Y-134050163D01*
X148557419Y-134050163D02*
X148605038Y-133954925D01*
X148605038Y-133954925D02*
X148652657Y-133907306D01*
X148652657Y-133907306D02*
X148747895Y-133859687D01*
X148747895Y-133859687D02*
X148890752Y-133859687D01*
X148890752Y-133859687D02*
X148985990Y-133907306D01*
X148985990Y-133907306D02*
X149033609Y-133954925D01*
X149033609Y-133954925D02*
X149081228Y-134050163D01*
X149081228Y-134050163D02*
X149081228Y-134431115D01*
X149509800Y-133478734D02*
X149557419Y-133335877D01*
X149557419Y-133335877D02*
X149557419Y-133097782D01*
X149557419Y-133097782D02*
X149509800Y-133002544D01*
X149509800Y-133002544D02*
X149462180Y-132954925D01*
X149462180Y-132954925D02*
X149366942Y-132907306D01*
X149366942Y-132907306D02*
X149271704Y-132907306D01*
X149271704Y-132907306D02*
X149176466Y-132954925D01*
X149176466Y-132954925D02*
X149128847Y-133002544D01*
X149128847Y-133002544D02*
X149081228Y-133097782D01*
X149081228Y-133097782D02*
X149033609Y-133288258D01*
X149033609Y-133288258D02*
X148985990Y-133383496D01*
X148985990Y-133383496D02*
X148938371Y-133431115D01*
X148938371Y-133431115D02*
X148843133Y-133478734D01*
X148843133Y-133478734D02*
X148747895Y-133478734D01*
X148747895Y-133478734D02*
X148652657Y-133431115D01*
X148652657Y-133431115D02*
X148605038Y-133383496D01*
X148605038Y-133383496D02*
X148557419Y-133288258D01*
X148557419Y-133288258D02*
X148557419Y-133050163D01*
X148557419Y-133050163D02*
X148605038Y-132907306D01*
X151145038Y-133907306D02*
X151097419Y-134002544D01*
X151097419Y-134002544D02*
X151097419Y-134145401D01*
X151097419Y-134145401D02*
X151145038Y-134288258D01*
X151145038Y-134288258D02*
X151240276Y-134383496D01*
X151240276Y-134383496D02*
X151335514Y-134431115D01*
X151335514Y-134431115D02*
X151525990Y-134478734D01*
X151525990Y-134478734D02*
X151668847Y-134478734D01*
X151668847Y-134478734D02*
X151859323Y-134431115D01*
X151859323Y-134431115D02*
X151954561Y-134383496D01*
X151954561Y-134383496D02*
X152049800Y-134288258D01*
X152049800Y-134288258D02*
X152097419Y-134145401D01*
X152097419Y-134145401D02*
X152097419Y-134050163D01*
X152097419Y-134050163D02*
X152049800Y-133907306D01*
X152049800Y-133907306D02*
X152002180Y-133859687D01*
X152002180Y-133859687D02*
X151668847Y-133859687D01*
X151668847Y-133859687D02*
X151668847Y-134050163D01*
X152097419Y-133431115D02*
X151430752Y-133431115D01*
X151621228Y-133431115D02*
X151525990Y-133383496D01*
X151525990Y-133383496D02*
X151478371Y-133335877D01*
X151478371Y-133335877D02*
X151430752Y-133240639D01*
X151430752Y-133240639D02*
X151430752Y-133145401D01*
X152049800Y-132431115D02*
X152097419Y-132526353D01*
X152097419Y-132526353D02*
X152097419Y-132716829D01*
X152097419Y-132716829D02*
X152049800Y-132812067D01*
X152049800Y-132812067D02*
X151954561Y-132859686D01*
X151954561Y-132859686D02*
X151573609Y-132859686D01*
X151573609Y-132859686D02*
X151478371Y-132812067D01*
X151478371Y-132812067D02*
X151430752Y-132716829D01*
X151430752Y-132716829D02*
X151430752Y-132526353D01*
X151430752Y-132526353D02*
X151478371Y-132431115D01*
X151478371Y-132431115D02*
X151573609Y-132383496D01*
X151573609Y-132383496D02*
X151668847Y-132383496D01*
X151668847Y-132383496D02*
X151764085Y-132859686D01*
X152049800Y-131573972D02*
X152097419Y-131669210D01*
X152097419Y-131669210D02*
X152097419Y-131859686D01*
X152097419Y-131859686D02*
X152049800Y-131954924D01*
X152049800Y-131954924D02*
X151954561Y-132002543D01*
X151954561Y-132002543D02*
X151573609Y-132002543D01*
X151573609Y-132002543D02*
X151478371Y-131954924D01*
X151478371Y-131954924D02*
X151430752Y-131859686D01*
X151430752Y-131859686D02*
X151430752Y-131669210D01*
X151430752Y-131669210D02*
X151478371Y-131573972D01*
X151478371Y-131573972D02*
X151573609Y-131526353D01*
X151573609Y-131526353D02*
X151668847Y-131526353D01*
X151668847Y-131526353D02*
X151764085Y-132002543D01*
X151430752Y-131097781D02*
X152097419Y-131097781D01*
X151525990Y-131097781D02*
X151478371Y-131050162D01*
X151478371Y-131050162D02*
X151430752Y-130954924D01*
X151430752Y-130954924D02*
X151430752Y-130812067D01*
X151430752Y-130812067D02*
X151478371Y-130716829D01*
X151478371Y-130716829D02*
X151573609Y-130669210D01*
X151573609Y-130669210D02*
X152097419Y-130669210D01*
X154161228Y-134240639D02*
X154637419Y-134240639D01*
X153637419Y-134573972D02*
X154161228Y-134240639D01*
X154161228Y-134240639D02*
X153637419Y-133907306D01*
X154589800Y-133193020D02*
X154637419Y-133288258D01*
X154637419Y-133288258D02*
X154637419Y-133478734D01*
X154637419Y-133478734D02*
X154589800Y-133573972D01*
X154589800Y-133573972D02*
X154494561Y-133621591D01*
X154494561Y-133621591D02*
X154113609Y-133621591D01*
X154113609Y-133621591D02*
X154018371Y-133573972D01*
X154018371Y-133573972D02*
X153970752Y-133478734D01*
X153970752Y-133478734D02*
X153970752Y-133288258D01*
X153970752Y-133288258D02*
X154018371Y-133193020D01*
X154018371Y-133193020D02*
X154113609Y-133145401D01*
X154113609Y-133145401D02*
X154208847Y-133145401D01*
X154208847Y-133145401D02*
X154304085Y-133621591D01*
X154637419Y-132573972D02*
X154589800Y-132669210D01*
X154589800Y-132669210D02*
X154494561Y-132716829D01*
X154494561Y-132716829D02*
X153637419Y-132716829D01*
X154637419Y-132050162D02*
X154589800Y-132145400D01*
X154589800Y-132145400D02*
X154494561Y-132193019D01*
X154494561Y-132193019D02*
X153637419Y-132193019D01*
X154637419Y-131526352D02*
X154589800Y-131621590D01*
X154589800Y-131621590D02*
X154542180Y-131669209D01*
X154542180Y-131669209D02*
X154446942Y-131716828D01*
X154446942Y-131716828D02*
X154161228Y-131716828D01*
X154161228Y-131716828D02*
X154065990Y-131669209D01*
X154065990Y-131669209D02*
X154018371Y-131621590D01*
X154018371Y-131621590D02*
X153970752Y-131526352D01*
X153970752Y-131526352D02*
X153970752Y-131383495D01*
X153970752Y-131383495D02*
X154018371Y-131288257D01*
X154018371Y-131288257D02*
X154065990Y-131240638D01*
X154065990Y-131240638D02*
X154161228Y-131193019D01*
X154161228Y-131193019D02*
X154446942Y-131193019D01*
X154446942Y-131193019D02*
X154542180Y-131240638D01*
X154542180Y-131240638D02*
X154589800Y-131288257D01*
X154589800Y-131288257D02*
X154637419Y-131383495D01*
X154637419Y-131383495D02*
X154637419Y-131526352D01*
X153970752Y-130859685D02*
X154637419Y-130669209D01*
X154637419Y-130669209D02*
X154161228Y-130478733D01*
X154161228Y-130478733D02*
X154637419Y-130288257D01*
X154637419Y-130288257D02*
X153970752Y-130097781D01*
X157177419Y-133859687D02*
X156701228Y-134193020D01*
X157177419Y-134431115D02*
X156177419Y-134431115D01*
X156177419Y-134431115D02*
X156177419Y-134050163D01*
X156177419Y-134050163D02*
X156225038Y-133954925D01*
X156225038Y-133954925D02*
X156272657Y-133907306D01*
X156272657Y-133907306D02*
X156367895Y-133859687D01*
X156367895Y-133859687D02*
X156510752Y-133859687D01*
X156510752Y-133859687D02*
X156605990Y-133907306D01*
X156605990Y-133907306D02*
X156653609Y-133954925D01*
X156653609Y-133954925D02*
X156701228Y-134050163D01*
X156701228Y-134050163D02*
X156701228Y-134431115D01*
X157129800Y-133050163D02*
X157177419Y-133145401D01*
X157177419Y-133145401D02*
X157177419Y-133335877D01*
X157177419Y-133335877D02*
X157129800Y-133431115D01*
X157129800Y-133431115D02*
X157034561Y-133478734D01*
X157034561Y-133478734D02*
X156653609Y-133478734D01*
X156653609Y-133478734D02*
X156558371Y-133431115D01*
X156558371Y-133431115D02*
X156510752Y-133335877D01*
X156510752Y-133335877D02*
X156510752Y-133145401D01*
X156510752Y-133145401D02*
X156558371Y-133050163D01*
X156558371Y-133050163D02*
X156653609Y-133002544D01*
X156653609Y-133002544D02*
X156748847Y-133002544D01*
X156748847Y-133002544D02*
X156844085Y-133478734D01*
X157177419Y-132145401D02*
X156177419Y-132145401D01*
X157129800Y-132145401D02*
X157177419Y-132240639D01*
X157177419Y-132240639D02*
X157177419Y-132431115D01*
X157177419Y-132431115D02*
X157129800Y-132526353D01*
X157129800Y-132526353D02*
X157082180Y-132573972D01*
X157082180Y-132573972D02*
X156986942Y-132621591D01*
X156986942Y-132621591D02*
X156701228Y-132621591D01*
X156701228Y-132621591D02*
X156605990Y-132573972D01*
X156605990Y-132573972D02*
X156558371Y-132526353D01*
X156558371Y-132526353D02*
X156510752Y-132431115D01*
X156510752Y-132431115D02*
X156510752Y-132240639D01*
X156510752Y-132240639D02*
X156558371Y-132145401D01*
X159193609Y-134097782D02*
X159241228Y-133954925D01*
X159241228Y-133954925D02*
X159288847Y-133907306D01*
X159288847Y-133907306D02*
X159384085Y-133859687D01*
X159384085Y-133859687D02*
X159526942Y-133859687D01*
X159526942Y-133859687D02*
X159622180Y-133907306D01*
X159622180Y-133907306D02*
X159669800Y-133954925D01*
X159669800Y-133954925D02*
X159717419Y-134050163D01*
X159717419Y-134050163D02*
X159717419Y-134431115D01*
X159717419Y-134431115D02*
X158717419Y-134431115D01*
X158717419Y-134431115D02*
X158717419Y-134097782D01*
X158717419Y-134097782D02*
X158765038Y-134002544D01*
X158765038Y-134002544D02*
X158812657Y-133954925D01*
X158812657Y-133954925D02*
X158907895Y-133907306D01*
X158907895Y-133907306D02*
X159003133Y-133907306D01*
X159003133Y-133907306D02*
X159098371Y-133954925D01*
X159098371Y-133954925D02*
X159145990Y-134002544D01*
X159145990Y-134002544D02*
X159193609Y-134097782D01*
X159193609Y-134097782D02*
X159193609Y-134431115D01*
X159717419Y-133288258D02*
X159669800Y-133383496D01*
X159669800Y-133383496D02*
X159574561Y-133431115D01*
X159574561Y-133431115D02*
X158717419Y-133431115D01*
X159050752Y-132478734D02*
X159717419Y-132478734D01*
X159050752Y-132907305D02*
X159574561Y-132907305D01*
X159574561Y-132907305D02*
X159669800Y-132859686D01*
X159669800Y-132859686D02*
X159717419Y-132764448D01*
X159717419Y-132764448D02*
X159717419Y-132621591D01*
X159717419Y-132621591D02*
X159669800Y-132526353D01*
X159669800Y-132526353D02*
X159622180Y-132478734D01*
X159669800Y-131621591D02*
X159717419Y-131716829D01*
X159717419Y-131716829D02*
X159717419Y-131907305D01*
X159717419Y-131907305D02*
X159669800Y-132002543D01*
X159669800Y-132002543D02*
X159574561Y-132050162D01*
X159574561Y-132050162D02*
X159193609Y-132050162D01*
X159193609Y-132050162D02*
X159098371Y-132002543D01*
X159098371Y-132002543D02*
X159050752Y-131907305D01*
X159050752Y-131907305D02*
X159050752Y-131716829D01*
X159050752Y-131716829D02*
X159098371Y-131621591D01*
X159098371Y-131621591D02*
X159193609Y-131573972D01*
X159193609Y-131573972D02*
X159288847Y-131573972D01*
X159288847Y-131573972D02*
X159384085Y-132050162D01*
X161305038Y-133907306D02*
X161257419Y-134002544D01*
X161257419Y-134002544D02*
X161257419Y-134145401D01*
X161257419Y-134145401D02*
X161305038Y-134288258D01*
X161305038Y-134288258D02*
X161400276Y-134383496D01*
X161400276Y-134383496D02*
X161495514Y-134431115D01*
X161495514Y-134431115D02*
X161685990Y-134478734D01*
X161685990Y-134478734D02*
X161828847Y-134478734D01*
X161828847Y-134478734D02*
X162019323Y-134431115D01*
X162019323Y-134431115D02*
X162114561Y-134383496D01*
X162114561Y-134383496D02*
X162209800Y-134288258D01*
X162209800Y-134288258D02*
X162257419Y-134145401D01*
X162257419Y-134145401D02*
X162257419Y-134050163D01*
X162257419Y-134050163D02*
X162209800Y-133907306D01*
X162209800Y-133907306D02*
X162162180Y-133859687D01*
X162162180Y-133859687D02*
X161828847Y-133859687D01*
X161828847Y-133859687D02*
X161828847Y-134050163D01*
X162257419Y-133431115D02*
X161257419Y-133431115D01*
X161257419Y-133431115D02*
X162257419Y-132859687D01*
X162257419Y-132859687D02*
X161257419Y-132859687D01*
X162257419Y-132383496D02*
X161257419Y-132383496D01*
X161257419Y-132383496D02*
X161257419Y-132145401D01*
X161257419Y-132145401D02*
X161305038Y-132002544D01*
X161305038Y-132002544D02*
X161400276Y-131907306D01*
X161400276Y-131907306D02*
X161495514Y-131859687D01*
X161495514Y-131859687D02*
X161685990Y-131812068D01*
X161685990Y-131812068D02*
X161828847Y-131812068D01*
X161828847Y-131812068D02*
X162019323Y-131859687D01*
X162019323Y-131859687D02*
X162114561Y-131907306D01*
X162114561Y-131907306D02*
X162209800Y-132002544D01*
X162209800Y-132002544D02*
X162257419Y-132145401D01*
X162257419Y-132145401D02*
X162257419Y-132383496D01*
X141387580Y-85508884D02*
X140578057Y-85508884D01*
X140578057Y-85508884D02*
X140482819Y-85556503D01*
X140482819Y-85556503D02*
X140435200Y-85604122D01*
X140435200Y-85604122D02*
X140387580Y-85699360D01*
X140387580Y-85699360D02*
X140387580Y-85889836D01*
X140387580Y-85889836D02*
X140435200Y-85985074D01*
X140435200Y-85985074D02*
X140482819Y-86032693D01*
X140482819Y-86032693D02*
X140578057Y-86080312D01*
X140578057Y-86080312D02*
X141387580Y-86080312D01*
X141054247Y-86556503D02*
X140054247Y-86556503D01*
X141006628Y-86556503D02*
X141054247Y-86651741D01*
X141054247Y-86651741D02*
X141054247Y-86842217D01*
X141054247Y-86842217D02*
X141006628Y-86937455D01*
X141006628Y-86937455D02*
X140959009Y-86985074D01*
X140959009Y-86985074D02*
X140863771Y-87032693D01*
X140863771Y-87032693D02*
X140578057Y-87032693D01*
X140578057Y-87032693D02*
X140482819Y-86985074D01*
X140482819Y-86985074D02*
X140435200Y-86937455D01*
X140435200Y-86937455D02*
X140387580Y-86842217D01*
X140387580Y-86842217D02*
X140387580Y-86651741D01*
X140387580Y-86651741D02*
X140435200Y-86556503D01*
X143308580Y-85508884D02*
X144308580Y-85508884D01*
X144308580Y-85508884D02*
X144308580Y-85746979D01*
X144308580Y-85746979D02*
X144260961Y-85889836D01*
X144260961Y-85889836D02*
X144165723Y-85985074D01*
X144165723Y-85985074D02*
X144070485Y-86032693D01*
X144070485Y-86032693D02*
X143880009Y-86080312D01*
X143880009Y-86080312D02*
X143737152Y-86080312D01*
X143737152Y-86080312D02*
X143546676Y-86032693D01*
X143546676Y-86032693D02*
X143451438Y-85985074D01*
X143451438Y-85985074D02*
X143356200Y-85889836D01*
X143356200Y-85889836D02*
X143308580Y-85746979D01*
X143308580Y-85746979D02*
X143308580Y-85508884D01*
X143308580Y-86651741D02*
X143356200Y-86556503D01*
X143356200Y-86556503D02*
X143403819Y-86508884D01*
X143403819Y-86508884D02*
X143499057Y-86461265D01*
X143499057Y-86461265D02*
X143784771Y-86461265D01*
X143784771Y-86461265D02*
X143880009Y-86508884D01*
X143880009Y-86508884D02*
X143927628Y-86556503D01*
X143927628Y-86556503D02*
X143975247Y-86651741D01*
X143975247Y-86651741D02*
X143975247Y-86794598D01*
X143975247Y-86794598D02*
X143927628Y-86889836D01*
X143927628Y-86889836D02*
X143880009Y-86937455D01*
X143880009Y-86937455D02*
X143784771Y-86985074D01*
X143784771Y-86985074D02*
X143499057Y-86985074D01*
X143499057Y-86985074D02*
X143403819Y-86937455D01*
X143403819Y-86937455D02*
X143356200Y-86889836D01*
X143356200Y-86889836D02*
X143308580Y-86794598D01*
X143308580Y-86794598D02*
X143308580Y-86651741D01*
X143975247Y-87318408D02*
X143308580Y-87508884D01*
X143308580Y-87508884D02*
X143784771Y-87699360D01*
X143784771Y-87699360D02*
X143308580Y-87889836D01*
X143308580Y-87889836D02*
X143975247Y-88080312D01*
X143975247Y-88461265D02*
X143308580Y-88461265D01*
X143880009Y-88461265D02*
X143927628Y-88508884D01*
X143927628Y-88508884D02*
X143975247Y-88604122D01*
X143975247Y-88604122D02*
X143975247Y-88746979D01*
X143975247Y-88746979D02*
X143927628Y-88842217D01*
X143927628Y-88842217D02*
X143832390Y-88889836D01*
X143832390Y-88889836D02*
X143308580Y-88889836D01*
X146102580Y-85985074D02*
X146102580Y-85508884D01*
X146102580Y-85508884D02*
X147102580Y-85508884D01*
X146150200Y-86699360D02*
X146102580Y-86604122D01*
X146102580Y-86604122D02*
X146102580Y-86413646D01*
X146102580Y-86413646D02*
X146150200Y-86318408D01*
X146150200Y-86318408D02*
X146245438Y-86270789D01*
X146245438Y-86270789D02*
X146626390Y-86270789D01*
X146626390Y-86270789D02*
X146721628Y-86318408D01*
X146721628Y-86318408D02*
X146769247Y-86413646D01*
X146769247Y-86413646D02*
X146769247Y-86604122D01*
X146769247Y-86604122D02*
X146721628Y-86699360D01*
X146721628Y-86699360D02*
X146626390Y-86746979D01*
X146626390Y-86746979D02*
X146531152Y-86746979D01*
X146531152Y-86746979D02*
X146435914Y-86270789D01*
X146769247Y-87032694D02*
X146769247Y-87413646D01*
X146102580Y-87175551D02*
X146959723Y-87175551D01*
X146959723Y-87175551D02*
X147054961Y-87223170D01*
X147054961Y-87223170D02*
X147102580Y-87318408D01*
X147102580Y-87318408D02*
X147102580Y-87413646D01*
X146769247Y-87604123D02*
X146769247Y-87985075D01*
X147102580Y-87746980D02*
X146245438Y-87746980D01*
X146245438Y-87746980D02*
X146150200Y-87794599D01*
X146150200Y-87794599D02*
X146102580Y-87889837D01*
X146102580Y-87889837D02*
X146102580Y-87985075D01*
X148896580Y-86080312D02*
X149372771Y-85746979D01*
X148896580Y-85508884D02*
X149896580Y-85508884D01*
X149896580Y-85508884D02*
X149896580Y-85889836D01*
X149896580Y-85889836D02*
X149848961Y-85985074D01*
X149848961Y-85985074D02*
X149801342Y-86032693D01*
X149801342Y-86032693D02*
X149706104Y-86080312D01*
X149706104Y-86080312D02*
X149563247Y-86080312D01*
X149563247Y-86080312D02*
X149468009Y-86032693D01*
X149468009Y-86032693D02*
X149420390Y-85985074D01*
X149420390Y-85985074D02*
X149372771Y-85889836D01*
X149372771Y-85889836D02*
X149372771Y-85508884D01*
X148896580Y-86508884D02*
X149563247Y-86508884D01*
X149896580Y-86508884D02*
X149848961Y-86461265D01*
X149848961Y-86461265D02*
X149801342Y-86508884D01*
X149801342Y-86508884D02*
X149848961Y-86556503D01*
X149848961Y-86556503D02*
X149896580Y-86508884D01*
X149896580Y-86508884D02*
X149801342Y-86508884D01*
X149563247Y-87413645D02*
X148753723Y-87413645D01*
X148753723Y-87413645D02*
X148658485Y-87366026D01*
X148658485Y-87366026D02*
X148610866Y-87318407D01*
X148610866Y-87318407D02*
X148563247Y-87223169D01*
X148563247Y-87223169D02*
X148563247Y-87080312D01*
X148563247Y-87080312D02*
X148610866Y-86985074D01*
X148944200Y-87413645D02*
X148896580Y-87318407D01*
X148896580Y-87318407D02*
X148896580Y-87127931D01*
X148896580Y-87127931D02*
X148944200Y-87032693D01*
X148944200Y-87032693D02*
X148991819Y-86985074D01*
X148991819Y-86985074D02*
X149087057Y-86937455D01*
X149087057Y-86937455D02*
X149372771Y-86937455D01*
X149372771Y-86937455D02*
X149468009Y-86985074D01*
X149468009Y-86985074D02*
X149515628Y-87032693D01*
X149515628Y-87032693D02*
X149563247Y-87127931D01*
X149563247Y-87127931D02*
X149563247Y-87318407D01*
X149563247Y-87318407D02*
X149515628Y-87413645D01*
X148896580Y-87889836D02*
X149896580Y-87889836D01*
X148896580Y-88318407D02*
X149420390Y-88318407D01*
X149420390Y-88318407D02*
X149515628Y-88270788D01*
X149515628Y-88270788D02*
X149563247Y-88175550D01*
X149563247Y-88175550D02*
X149563247Y-88032693D01*
X149563247Y-88032693D02*
X149515628Y-87937455D01*
X149515628Y-87937455D02*
X149468009Y-87889836D01*
X149563247Y-88651741D02*
X149563247Y-89032693D01*
X149896580Y-88794598D02*
X149039438Y-88794598D01*
X149039438Y-88794598D02*
X148944200Y-88842217D01*
X148944200Y-88842217D02*
X148896580Y-88937455D01*
X148896580Y-88937455D02*
X148896580Y-89032693D01*
X151690580Y-85508884D02*
X152690580Y-85508884D01*
X152690580Y-85508884D02*
X151976295Y-85842217D01*
X151976295Y-85842217D02*
X152690580Y-86175550D01*
X152690580Y-86175550D02*
X151690580Y-86175550D01*
X151690580Y-86794598D02*
X151738200Y-86699360D01*
X151738200Y-86699360D02*
X151785819Y-86651741D01*
X151785819Y-86651741D02*
X151881057Y-86604122D01*
X151881057Y-86604122D02*
X152166771Y-86604122D01*
X152166771Y-86604122D02*
X152262009Y-86651741D01*
X152262009Y-86651741D02*
X152309628Y-86699360D01*
X152309628Y-86699360D02*
X152357247Y-86794598D01*
X152357247Y-86794598D02*
X152357247Y-86937455D01*
X152357247Y-86937455D02*
X152309628Y-87032693D01*
X152309628Y-87032693D02*
X152262009Y-87080312D01*
X152262009Y-87080312D02*
X152166771Y-87127931D01*
X152166771Y-87127931D02*
X151881057Y-87127931D01*
X151881057Y-87127931D02*
X151785819Y-87080312D01*
X151785819Y-87080312D02*
X151738200Y-87032693D01*
X151738200Y-87032693D02*
X151690580Y-86937455D01*
X151690580Y-86937455D02*
X151690580Y-86794598D01*
X151690580Y-87985074D02*
X152690580Y-87985074D01*
X151738200Y-87985074D02*
X151690580Y-87889836D01*
X151690580Y-87889836D02*
X151690580Y-87699360D01*
X151690580Y-87699360D02*
X151738200Y-87604122D01*
X151738200Y-87604122D02*
X151785819Y-87556503D01*
X151785819Y-87556503D02*
X151881057Y-87508884D01*
X151881057Y-87508884D02*
X152166771Y-87508884D01*
X152166771Y-87508884D02*
X152262009Y-87556503D01*
X152262009Y-87556503D02*
X152309628Y-87604122D01*
X152309628Y-87604122D02*
X152357247Y-87699360D01*
X152357247Y-87699360D02*
X152357247Y-87889836D01*
X152357247Y-87889836D02*
X152309628Y-87985074D01*
X151738200Y-88842217D02*
X151690580Y-88746979D01*
X151690580Y-88746979D02*
X151690580Y-88556503D01*
X151690580Y-88556503D02*
X151738200Y-88461265D01*
X151738200Y-88461265D02*
X151833438Y-88413646D01*
X151833438Y-88413646D02*
X152214390Y-88413646D01*
X152214390Y-88413646D02*
X152309628Y-88461265D01*
X152309628Y-88461265D02*
X152357247Y-88556503D01*
X152357247Y-88556503D02*
X152357247Y-88746979D01*
X152357247Y-88746979D02*
X152309628Y-88842217D01*
X152309628Y-88842217D02*
X152214390Y-88889836D01*
X152214390Y-88889836D02*
X152119152Y-88889836D01*
X152119152Y-88889836D02*
X152023914Y-88413646D01*
D11*
X110416667Y-128727200D02*
X110559524Y-128774819D01*
X110559524Y-128774819D02*
X110797619Y-128774819D01*
X110797619Y-128774819D02*
X110892857Y-128727200D01*
X110892857Y-128727200D02*
X110940476Y-128679580D01*
X110940476Y-128679580D02*
X110988095Y-128584342D01*
X110988095Y-128584342D02*
X110988095Y-128489104D01*
X110988095Y-128489104D02*
X110940476Y-128393866D01*
X110940476Y-128393866D02*
X110892857Y-128346247D01*
X110892857Y-128346247D02*
X110797619Y-128298628D01*
X110797619Y-128298628D02*
X110607143Y-128251009D01*
X110607143Y-128251009D02*
X110511905Y-128203390D01*
X110511905Y-128203390D02*
X110464286Y-128155771D01*
X110464286Y-128155771D02*
X110416667Y-128060533D01*
X110416667Y-128060533D02*
X110416667Y-127965295D01*
X110416667Y-127965295D02*
X110464286Y-127870057D01*
X110464286Y-127870057D02*
X110511905Y-127822438D01*
X110511905Y-127822438D02*
X110607143Y-127774819D01*
X110607143Y-127774819D02*
X110845238Y-127774819D01*
X110845238Y-127774819D02*
X110988095Y-127822438D01*
X111321429Y-127774819D02*
X111559524Y-128774819D01*
X111559524Y-128774819D02*
X111750000Y-128060533D01*
X111750000Y-128060533D02*
X111940476Y-128774819D01*
X111940476Y-128774819D02*
X112178572Y-127774819D01*
X112511905Y-127870057D02*
X112559524Y-127822438D01*
X112559524Y-127822438D02*
X112654762Y-127774819D01*
X112654762Y-127774819D02*
X112892857Y-127774819D01*
X112892857Y-127774819D02*
X112988095Y-127822438D01*
X112988095Y-127822438D02*
X113035714Y-127870057D01*
X113035714Y-127870057D02*
X113083333Y-127965295D01*
X113083333Y-127965295D02*
X113083333Y-128060533D01*
X113083333Y-128060533D02*
X113035714Y-128203390D01*
X113035714Y-128203390D02*
X112464286Y-128774819D01*
X112464286Y-128774819D02*
X113083333Y-128774819D01*
X133693333Y-114064819D02*
X133360000Y-113588628D01*
X133121905Y-114064819D02*
X133121905Y-113064819D01*
X133121905Y-113064819D02*
X133502857Y-113064819D01*
X133502857Y-113064819D02*
X133598095Y-113112438D01*
X133598095Y-113112438D02*
X133645714Y-113160057D01*
X133645714Y-113160057D02*
X133693333Y-113255295D01*
X133693333Y-113255295D02*
X133693333Y-113398152D01*
X133693333Y-113398152D02*
X133645714Y-113493390D01*
X133645714Y-113493390D02*
X133598095Y-113541009D01*
X133598095Y-113541009D02*
X133502857Y-113588628D01*
X133502857Y-113588628D02*
X133121905Y-113588628D01*
X134645714Y-114064819D02*
X134074286Y-114064819D01*
X134360000Y-114064819D02*
X134360000Y-113064819D01*
X134360000Y-113064819D02*
X134264762Y-113207676D01*
X134264762Y-113207676D02*
X134169524Y-113302914D01*
X134169524Y-113302914D02*
X134074286Y-113350533D01*
X167499523Y-111694819D02*
X167166190Y-111218628D01*
X166928095Y-111694819D02*
X166928095Y-110694819D01*
X166928095Y-110694819D02*
X167309047Y-110694819D01*
X167309047Y-110694819D02*
X167404285Y-110742438D01*
X167404285Y-110742438D02*
X167451904Y-110790057D01*
X167451904Y-110790057D02*
X167499523Y-110885295D01*
X167499523Y-110885295D02*
X167499523Y-111028152D01*
X167499523Y-111028152D02*
X167451904Y-111123390D01*
X167451904Y-111123390D02*
X167404285Y-111171009D01*
X167404285Y-111171009D02*
X167309047Y-111218628D01*
X167309047Y-111218628D02*
X166928095Y-111218628D01*
X167928095Y-111694819D02*
X167928095Y-110694819D01*
X167928095Y-110694819D02*
X168499523Y-111694819D01*
X168499523Y-111694819D02*
X168499523Y-110694819D01*
X169499523Y-111694819D02*
X168928095Y-111694819D01*
X169213809Y-111694819D02*
X169213809Y-110694819D01*
X169213809Y-110694819D02*
X169118571Y-110837676D01*
X169118571Y-110837676D02*
X169023333Y-110932914D01*
X169023333Y-110932914D02*
X168928095Y-110980533D01*
X163634819Y-137100333D02*
X164349104Y-137100333D01*
X164349104Y-137100333D02*
X164491961Y-137147952D01*
X164491961Y-137147952D02*
X164587200Y-137243190D01*
X164587200Y-137243190D02*
X164634819Y-137386047D01*
X164634819Y-137386047D02*
X164634819Y-137481285D01*
X163730057Y-136671761D02*
X163682438Y-136624142D01*
X163682438Y-136624142D02*
X163634819Y-136528904D01*
X163634819Y-136528904D02*
X163634819Y-136290809D01*
X163634819Y-136290809D02*
X163682438Y-136195571D01*
X163682438Y-136195571D02*
X163730057Y-136147952D01*
X163730057Y-136147952D02*
X163825295Y-136100333D01*
X163825295Y-136100333D02*
X163920533Y-136100333D01*
X163920533Y-136100333D02*
X164063390Y-136147952D01*
X164063390Y-136147952D02*
X164634819Y-136719380D01*
X164634819Y-136719380D02*
X164634819Y-136100333D01*
X107316667Y-96407200D02*
X107459524Y-96454819D01*
X107459524Y-96454819D02*
X107697619Y-96454819D01*
X107697619Y-96454819D02*
X107792857Y-96407200D01*
X107792857Y-96407200D02*
X107840476Y-96359580D01*
X107840476Y-96359580D02*
X107888095Y-96264342D01*
X107888095Y-96264342D02*
X107888095Y-96169104D01*
X107888095Y-96169104D02*
X107840476Y-96073866D01*
X107840476Y-96073866D02*
X107792857Y-96026247D01*
X107792857Y-96026247D02*
X107697619Y-95978628D01*
X107697619Y-95978628D02*
X107507143Y-95931009D01*
X107507143Y-95931009D02*
X107411905Y-95883390D01*
X107411905Y-95883390D02*
X107364286Y-95835771D01*
X107364286Y-95835771D02*
X107316667Y-95740533D01*
X107316667Y-95740533D02*
X107316667Y-95645295D01*
X107316667Y-95645295D02*
X107364286Y-95550057D01*
X107364286Y-95550057D02*
X107411905Y-95502438D01*
X107411905Y-95502438D02*
X107507143Y-95454819D01*
X107507143Y-95454819D02*
X107745238Y-95454819D01*
X107745238Y-95454819D02*
X107888095Y-95502438D01*
X108221429Y-95454819D02*
X108459524Y-96454819D01*
X108459524Y-96454819D02*
X108650000Y-95740533D01*
X108650000Y-95740533D02*
X108840476Y-96454819D01*
X108840476Y-96454819D02*
X109078572Y-95454819D01*
X109507143Y-96454819D02*
X109697619Y-96454819D01*
X109697619Y-96454819D02*
X109792857Y-96407200D01*
X109792857Y-96407200D02*
X109840476Y-96359580D01*
X109840476Y-96359580D02*
X109935714Y-96216723D01*
X109935714Y-96216723D02*
X109983333Y-96026247D01*
X109983333Y-96026247D02*
X109983333Y-95645295D01*
X109983333Y-95645295D02*
X109935714Y-95550057D01*
X109935714Y-95550057D02*
X109888095Y-95502438D01*
X109888095Y-95502438D02*
X109792857Y-95454819D01*
X109792857Y-95454819D02*
X109602381Y-95454819D01*
X109602381Y-95454819D02*
X109507143Y-95502438D01*
X109507143Y-95502438D02*
X109459524Y-95550057D01*
X109459524Y-95550057D02*
X109411905Y-95645295D01*
X109411905Y-95645295D02*
X109411905Y-95883390D01*
X109411905Y-95883390D02*
X109459524Y-95978628D01*
X109459524Y-95978628D02*
X109507143Y-96026247D01*
X109507143Y-96026247D02*
X109602381Y-96073866D01*
X109602381Y-96073866D02*
X109792857Y-96073866D01*
X109792857Y-96073866D02*
X109888095Y-96026247D01*
X109888095Y-96026247D02*
X109935714Y-95978628D01*
X109935714Y-95978628D02*
X109983333Y-95883390D01*
X143264819Y-103111904D02*
X144074342Y-103111904D01*
X144074342Y-103111904D02*
X144169580Y-103064285D01*
X144169580Y-103064285D02*
X144217200Y-103016666D01*
X144217200Y-103016666D02*
X144264819Y-102921428D01*
X144264819Y-102921428D02*
X144264819Y-102730952D01*
X144264819Y-102730952D02*
X144217200Y-102635714D01*
X144217200Y-102635714D02*
X144169580Y-102588095D01*
X144169580Y-102588095D02*
X144074342Y-102540476D01*
X144074342Y-102540476D02*
X143264819Y-102540476D01*
X143360057Y-102111904D02*
X143312438Y-102064285D01*
X143312438Y-102064285D02*
X143264819Y-101969047D01*
X143264819Y-101969047D02*
X143264819Y-101730952D01*
X143264819Y-101730952D02*
X143312438Y-101635714D01*
X143312438Y-101635714D02*
X143360057Y-101588095D01*
X143360057Y-101588095D02*
X143455295Y-101540476D01*
X143455295Y-101540476D02*
X143550533Y-101540476D01*
X143550533Y-101540476D02*
X143693390Y-101588095D01*
X143693390Y-101588095D02*
X144264819Y-102159523D01*
X144264819Y-102159523D02*
X144264819Y-101540476D01*
X103416667Y-121727200D02*
X103559524Y-121774819D01*
X103559524Y-121774819D02*
X103797619Y-121774819D01*
X103797619Y-121774819D02*
X103892857Y-121727200D01*
X103892857Y-121727200D02*
X103940476Y-121679580D01*
X103940476Y-121679580D02*
X103988095Y-121584342D01*
X103988095Y-121584342D02*
X103988095Y-121489104D01*
X103988095Y-121489104D02*
X103940476Y-121393866D01*
X103940476Y-121393866D02*
X103892857Y-121346247D01*
X103892857Y-121346247D02*
X103797619Y-121298628D01*
X103797619Y-121298628D02*
X103607143Y-121251009D01*
X103607143Y-121251009D02*
X103511905Y-121203390D01*
X103511905Y-121203390D02*
X103464286Y-121155771D01*
X103464286Y-121155771D02*
X103416667Y-121060533D01*
X103416667Y-121060533D02*
X103416667Y-120965295D01*
X103416667Y-120965295D02*
X103464286Y-120870057D01*
X103464286Y-120870057D02*
X103511905Y-120822438D01*
X103511905Y-120822438D02*
X103607143Y-120774819D01*
X103607143Y-120774819D02*
X103845238Y-120774819D01*
X103845238Y-120774819D02*
X103988095Y-120822438D01*
X104321429Y-120774819D02*
X104559524Y-121774819D01*
X104559524Y-121774819D02*
X104750000Y-121060533D01*
X104750000Y-121060533D02*
X104940476Y-121774819D01*
X104940476Y-121774819D02*
X105178572Y-120774819D01*
X105464286Y-120774819D02*
X106083333Y-120774819D01*
X106083333Y-120774819D02*
X105750000Y-121155771D01*
X105750000Y-121155771D02*
X105892857Y-121155771D01*
X105892857Y-121155771D02*
X105988095Y-121203390D01*
X105988095Y-121203390D02*
X106035714Y-121251009D01*
X106035714Y-121251009D02*
X106083333Y-121346247D01*
X106083333Y-121346247D02*
X106083333Y-121584342D01*
X106083333Y-121584342D02*
X106035714Y-121679580D01*
X106035714Y-121679580D02*
X105988095Y-121727200D01*
X105988095Y-121727200D02*
X105892857Y-121774819D01*
X105892857Y-121774819D02*
X105607143Y-121774819D01*
X105607143Y-121774819D02*
X105511905Y-121727200D01*
X105511905Y-121727200D02*
X105464286Y-121679580D01*
X144675476Y-121887200D02*
X144818333Y-121934819D01*
X144818333Y-121934819D02*
X145056428Y-121934819D01*
X145056428Y-121934819D02*
X145151666Y-121887200D01*
X145151666Y-121887200D02*
X145199285Y-121839580D01*
X145199285Y-121839580D02*
X145246904Y-121744342D01*
X145246904Y-121744342D02*
X145246904Y-121649104D01*
X145246904Y-121649104D02*
X145199285Y-121553866D01*
X145199285Y-121553866D02*
X145151666Y-121506247D01*
X145151666Y-121506247D02*
X145056428Y-121458628D01*
X145056428Y-121458628D02*
X144865952Y-121411009D01*
X144865952Y-121411009D02*
X144770714Y-121363390D01*
X144770714Y-121363390D02*
X144723095Y-121315771D01*
X144723095Y-121315771D02*
X144675476Y-121220533D01*
X144675476Y-121220533D02*
X144675476Y-121125295D01*
X144675476Y-121125295D02*
X144723095Y-121030057D01*
X144723095Y-121030057D02*
X144770714Y-120982438D01*
X144770714Y-120982438D02*
X144865952Y-120934819D01*
X144865952Y-120934819D02*
X145104047Y-120934819D01*
X145104047Y-120934819D02*
X145246904Y-120982438D01*
X145580238Y-120934819D02*
X145818333Y-121934819D01*
X145818333Y-121934819D02*
X146008809Y-121220533D01*
X146008809Y-121220533D02*
X146199285Y-121934819D01*
X146199285Y-121934819D02*
X146437381Y-120934819D01*
X147342142Y-121934819D02*
X146770714Y-121934819D01*
X147056428Y-121934819D02*
X147056428Y-120934819D01*
X147056428Y-120934819D02*
X146961190Y-121077676D01*
X146961190Y-121077676D02*
X146865952Y-121172914D01*
X146865952Y-121172914D02*
X146770714Y-121220533D01*
X148294523Y-121934819D02*
X147723095Y-121934819D01*
X148008809Y-121934819D02*
X148008809Y-120934819D01*
X148008809Y-120934819D02*
X147913571Y-121077676D01*
X147913571Y-121077676D02*
X147818333Y-121172914D01*
X147818333Y-121172914D02*
X147723095Y-121220533D01*
X144750476Y-112477200D02*
X144893333Y-112524819D01*
X144893333Y-112524819D02*
X145131428Y-112524819D01*
X145131428Y-112524819D02*
X145226666Y-112477200D01*
X145226666Y-112477200D02*
X145274285Y-112429580D01*
X145274285Y-112429580D02*
X145321904Y-112334342D01*
X145321904Y-112334342D02*
X145321904Y-112239104D01*
X145321904Y-112239104D02*
X145274285Y-112143866D01*
X145274285Y-112143866D02*
X145226666Y-112096247D01*
X145226666Y-112096247D02*
X145131428Y-112048628D01*
X145131428Y-112048628D02*
X144940952Y-112001009D01*
X144940952Y-112001009D02*
X144845714Y-111953390D01*
X144845714Y-111953390D02*
X144798095Y-111905771D01*
X144798095Y-111905771D02*
X144750476Y-111810533D01*
X144750476Y-111810533D02*
X144750476Y-111715295D01*
X144750476Y-111715295D02*
X144798095Y-111620057D01*
X144798095Y-111620057D02*
X144845714Y-111572438D01*
X144845714Y-111572438D02*
X144940952Y-111524819D01*
X144940952Y-111524819D02*
X145179047Y-111524819D01*
X145179047Y-111524819D02*
X145321904Y-111572438D01*
X145655238Y-111524819D02*
X145893333Y-112524819D01*
X145893333Y-112524819D02*
X146083809Y-111810533D01*
X146083809Y-111810533D02*
X146274285Y-112524819D01*
X146274285Y-112524819D02*
X146512381Y-111524819D01*
X147417142Y-112524819D02*
X146845714Y-112524819D01*
X147131428Y-112524819D02*
X147131428Y-111524819D01*
X147131428Y-111524819D02*
X147036190Y-111667676D01*
X147036190Y-111667676D02*
X146940952Y-111762914D01*
X146940952Y-111762914D02*
X146845714Y-111810533D01*
X147798095Y-111620057D02*
X147845714Y-111572438D01*
X147845714Y-111572438D02*
X147940952Y-111524819D01*
X147940952Y-111524819D02*
X148179047Y-111524819D01*
X148179047Y-111524819D02*
X148274285Y-111572438D01*
X148274285Y-111572438D02*
X148321904Y-111620057D01*
X148321904Y-111620057D02*
X148369523Y-111715295D01*
X148369523Y-111715295D02*
X148369523Y-111810533D01*
X148369523Y-111810533D02*
X148321904Y-111953390D01*
X148321904Y-111953390D02*
X147750476Y-112524819D01*
X147750476Y-112524819D02*
X148369523Y-112524819D01*
X143218333Y-93819580D02*
X143170714Y-93867200D01*
X143170714Y-93867200D02*
X143027857Y-93914819D01*
X143027857Y-93914819D02*
X142932619Y-93914819D01*
X142932619Y-93914819D02*
X142789762Y-93867200D01*
X142789762Y-93867200D02*
X142694524Y-93771961D01*
X142694524Y-93771961D02*
X142646905Y-93676723D01*
X142646905Y-93676723D02*
X142599286Y-93486247D01*
X142599286Y-93486247D02*
X142599286Y-93343390D01*
X142599286Y-93343390D02*
X142646905Y-93152914D01*
X142646905Y-93152914D02*
X142694524Y-93057676D01*
X142694524Y-93057676D02*
X142789762Y-92962438D01*
X142789762Y-92962438D02*
X142932619Y-92914819D01*
X142932619Y-92914819D02*
X143027857Y-92914819D01*
X143027857Y-92914819D02*
X143170714Y-92962438D01*
X143170714Y-92962438D02*
X143218333Y-93010057D01*
X143599286Y-93010057D02*
X143646905Y-92962438D01*
X143646905Y-92962438D02*
X143742143Y-92914819D01*
X143742143Y-92914819D02*
X143980238Y-92914819D01*
X143980238Y-92914819D02*
X144075476Y-92962438D01*
X144075476Y-92962438D02*
X144123095Y-93010057D01*
X144123095Y-93010057D02*
X144170714Y-93105295D01*
X144170714Y-93105295D02*
X144170714Y-93200533D01*
X144170714Y-93200533D02*
X144123095Y-93343390D01*
X144123095Y-93343390D02*
X143551667Y-93914819D01*
X143551667Y-93914819D02*
X144170714Y-93914819D01*
X184086667Y-124887200D02*
X184229524Y-124934819D01*
X184229524Y-124934819D02*
X184467619Y-124934819D01*
X184467619Y-124934819D02*
X184562857Y-124887200D01*
X184562857Y-124887200D02*
X184610476Y-124839580D01*
X184610476Y-124839580D02*
X184658095Y-124744342D01*
X184658095Y-124744342D02*
X184658095Y-124649104D01*
X184658095Y-124649104D02*
X184610476Y-124553866D01*
X184610476Y-124553866D02*
X184562857Y-124506247D01*
X184562857Y-124506247D02*
X184467619Y-124458628D01*
X184467619Y-124458628D02*
X184277143Y-124411009D01*
X184277143Y-124411009D02*
X184181905Y-124363390D01*
X184181905Y-124363390D02*
X184134286Y-124315771D01*
X184134286Y-124315771D02*
X184086667Y-124220533D01*
X184086667Y-124220533D02*
X184086667Y-124125295D01*
X184086667Y-124125295D02*
X184134286Y-124030057D01*
X184134286Y-124030057D02*
X184181905Y-123982438D01*
X184181905Y-123982438D02*
X184277143Y-123934819D01*
X184277143Y-123934819D02*
X184515238Y-123934819D01*
X184515238Y-123934819D02*
X184658095Y-123982438D01*
X184991429Y-123934819D02*
X185229524Y-124934819D01*
X185229524Y-124934819D02*
X185420000Y-124220533D01*
X185420000Y-124220533D02*
X185610476Y-124934819D01*
X185610476Y-124934819D02*
X185848572Y-123934819D01*
X186372381Y-124363390D02*
X186277143Y-124315771D01*
X186277143Y-124315771D02*
X186229524Y-124268152D01*
X186229524Y-124268152D02*
X186181905Y-124172914D01*
X186181905Y-124172914D02*
X186181905Y-124125295D01*
X186181905Y-124125295D02*
X186229524Y-124030057D01*
X186229524Y-124030057D02*
X186277143Y-123982438D01*
X186277143Y-123982438D02*
X186372381Y-123934819D01*
X186372381Y-123934819D02*
X186562857Y-123934819D01*
X186562857Y-123934819D02*
X186658095Y-123982438D01*
X186658095Y-123982438D02*
X186705714Y-124030057D01*
X186705714Y-124030057D02*
X186753333Y-124125295D01*
X186753333Y-124125295D02*
X186753333Y-124172914D01*
X186753333Y-124172914D02*
X186705714Y-124268152D01*
X186705714Y-124268152D02*
X186658095Y-124315771D01*
X186658095Y-124315771D02*
X186562857Y-124363390D01*
X186562857Y-124363390D02*
X186372381Y-124363390D01*
X186372381Y-124363390D02*
X186277143Y-124411009D01*
X186277143Y-124411009D02*
X186229524Y-124458628D01*
X186229524Y-124458628D02*
X186181905Y-124553866D01*
X186181905Y-124553866D02*
X186181905Y-124744342D01*
X186181905Y-124744342D02*
X186229524Y-124839580D01*
X186229524Y-124839580D02*
X186277143Y-124887200D01*
X186277143Y-124887200D02*
X186372381Y-124934819D01*
X186372381Y-124934819D02*
X186562857Y-124934819D01*
X186562857Y-124934819D02*
X186658095Y-124887200D01*
X186658095Y-124887200D02*
X186705714Y-124839580D01*
X186705714Y-124839580D02*
X186753333Y-124744342D01*
X186753333Y-124744342D02*
X186753333Y-124553866D01*
X186753333Y-124553866D02*
X186705714Y-124458628D01*
X186705714Y-124458628D02*
X186658095Y-124411009D01*
X186658095Y-124411009D02*
X186562857Y-124363390D01*
X156739580Y-89816666D02*
X156787200Y-89864285D01*
X156787200Y-89864285D02*
X156834819Y-90007142D01*
X156834819Y-90007142D02*
X156834819Y-90102380D01*
X156834819Y-90102380D02*
X156787200Y-90245237D01*
X156787200Y-90245237D02*
X156691961Y-90340475D01*
X156691961Y-90340475D02*
X156596723Y-90388094D01*
X156596723Y-90388094D02*
X156406247Y-90435713D01*
X156406247Y-90435713D02*
X156263390Y-90435713D01*
X156263390Y-90435713D02*
X156072914Y-90388094D01*
X156072914Y-90388094D02*
X155977676Y-90340475D01*
X155977676Y-90340475D02*
X155882438Y-90245237D01*
X155882438Y-90245237D02*
X155834819Y-90102380D01*
X155834819Y-90102380D02*
X155834819Y-90007142D01*
X155834819Y-90007142D02*
X155882438Y-89864285D01*
X155882438Y-89864285D02*
X155930057Y-89816666D01*
X156834819Y-88864285D02*
X156834819Y-89435713D01*
X156834819Y-89149999D02*
X155834819Y-89149999D01*
X155834819Y-89149999D02*
X155977676Y-89245237D01*
X155977676Y-89245237D02*
X156072914Y-89340475D01*
X156072914Y-89340475D02*
X156120533Y-89435713D01*
X155689999Y-82177319D02*
X155689999Y-82891604D01*
X155689999Y-82891604D02*
X155642380Y-83034461D01*
X155642380Y-83034461D02*
X155547142Y-83129700D01*
X155547142Y-83129700D02*
X155404285Y-83177319D01*
X155404285Y-83177319D02*
X155309047Y-83177319D01*
X156689999Y-83177319D02*
X156118571Y-83177319D01*
X156404285Y-83177319D02*
X156404285Y-82177319D01*
X156404285Y-82177319D02*
X156309047Y-82320176D01*
X156309047Y-82320176D02*
X156213809Y-82415414D01*
X156213809Y-82415414D02*
X156118571Y-82463033D01*
X181953333Y-114064819D02*
X181620000Y-113588628D01*
X181381905Y-114064819D02*
X181381905Y-113064819D01*
X181381905Y-113064819D02*
X181762857Y-113064819D01*
X181762857Y-113064819D02*
X181858095Y-113112438D01*
X181858095Y-113112438D02*
X181905714Y-113160057D01*
X181905714Y-113160057D02*
X181953333Y-113255295D01*
X181953333Y-113255295D02*
X181953333Y-113398152D01*
X181953333Y-113398152D02*
X181905714Y-113493390D01*
X181905714Y-113493390D02*
X181858095Y-113541009D01*
X181858095Y-113541009D02*
X181762857Y-113588628D01*
X181762857Y-113588628D02*
X181381905Y-113588628D01*
X182334286Y-113160057D02*
X182381905Y-113112438D01*
X182381905Y-113112438D02*
X182477143Y-113064819D01*
X182477143Y-113064819D02*
X182715238Y-113064819D01*
X182715238Y-113064819D02*
X182810476Y-113112438D01*
X182810476Y-113112438D02*
X182858095Y-113160057D01*
X182858095Y-113160057D02*
X182905714Y-113255295D01*
X182905714Y-113255295D02*
X182905714Y-113350533D01*
X182905714Y-113350533D02*
X182858095Y-113493390D01*
X182858095Y-113493390D02*
X182286667Y-114064819D01*
X182286667Y-114064819D02*
X182905714Y-114064819D01*
X122154580Y-101246666D02*
X122202200Y-101294285D01*
X122202200Y-101294285D02*
X122249819Y-101437142D01*
X122249819Y-101437142D02*
X122249819Y-101532380D01*
X122249819Y-101532380D02*
X122202200Y-101675237D01*
X122202200Y-101675237D02*
X122106961Y-101770475D01*
X122106961Y-101770475D02*
X122011723Y-101818094D01*
X122011723Y-101818094D02*
X121821247Y-101865713D01*
X121821247Y-101865713D02*
X121678390Y-101865713D01*
X121678390Y-101865713D02*
X121487914Y-101818094D01*
X121487914Y-101818094D02*
X121392676Y-101770475D01*
X121392676Y-101770475D02*
X121297438Y-101675237D01*
X121297438Y-101675237D02*
X121249819Y-101532380D01*
X121249819Y-101532380D02*
X121249819Y-101437142D01*
X121249819Y-101437142D02*
X121297438Y-101294285D01*
X121297438Y-101294285D02*
X121345057Y-101246666D01*
X121249819Y-100913332D02*
X121249819Y-100294285D01*
X121249819Y-100294285D02*
X121630771Y-100627618D01*
X121630771Y-100627618D02*
X121630771Y-100484761D01*
X121630771Y-100484761D02*
X121678390Y-100389523D01*
X121678390Y-100389523D02*
X121726009Y-100341904D01*
X121726009Y-100341904D02*
X121821247Y-100294285D01*
X121821247Y-100294285D02*
X122059342Y-100294285D01*
X122059342Y-100294285D02*
X122154580Y-100341904D01*
X122154580Y-100341904D02*
X122202200Y-100389523D01*
X122202200Y-100389523D02*
X122249819Y-100484761D01*
X122249819Y-100484761D02*
X122249819Y-100770475D01*
X122249819Y-100770475D02*
X122202200Y-100865713D01*
X122202200Y-100865713D02*
X122154580Y-100913332D01*
X192604819Y-102516666D02*
X192128628Y-102849999D01*
X192604819Y-103088094D02*
X191604819Y-103088094D01*
X191604819Y-103088094D02*
X191604819Y-102707142D01*
X191604819Y-102707142D02*
X191652438Y-102611904D01*
X191652438Y-102611904D02*
X191700057Y-102564285D01*
X191700057Y-102564285D02*
X191795295Y-102516666D01*
X191795295Y-102516666D02*
X191938152Y-102516666D01*
X191938152Y-102516666D02*
X192033390Y-102564285D01*
X192033390Y-102564285D02*
X192081009Y-102611904D01*
X192081009Y-102611904D02*
X192128628Y-102707142D01*
X192128628Y-102707142D02*
X192128628Y-103088094D01*
X191604819Y-101611904D02*
X191604819Y-102088094D01*
X191604819Y-102088094D02*
X192081009Y-102135713D01*
X192081009Y-102135713D02*
X192033390Y-102088094D01*
X192033390Y-102088094D02*
X191985771Y-101992856D01*
X191985771Y-101992856D02*
X191985771Y-101754761D01*
X191985771Y-101754761D02*
X192033390Y-101659523D01*
X192033390Y-101659523D02*
X192081009Y-101611904D01*
X192081009Y-101611904D02*
X192176247Y-101564285D01*
X192176247Y-101564285D02*
X192414342Y-101564285D01*
X192414342Y-101564285D02*
X192509580Y-101611904D01*
X192509580Y-101611904D02*
X192557200Y-101659523D01*
X192557200Y-101659523D02*
X192604819Y-101754761D01*
X192604819Y-101754761D02*
X192604819Y-101992856D01*
X192604819Y-101992856D02*
X192557200Y-102088094D01*
X192557200Y-102088094D02*
X192509580Y-102135713D01*
X128613333Y-91544819D02*
X128280000Y-91068628D01*
X128041905Y-91544819D02*
X128041905Y-90544819D01*
X128041905Y-90544819D02*
X128422857Y-90544819D01*
X128422857Y-90544819D02*
X128518095Y-90592438D01*
X128518095Y-90592438D02*
X128565714Y-90640057D01*
X128565714Y-90640057D02*
X128613333Y-90735295D01*
X128613333Y-90735295D02*
X128613333Y-90878152D01*
X128613333Y-90878152D02*
X128565714Y-90973390D01*
X128565714Y-90973390D02*
X128518095Y-91021009D01*
X128518095Y-91021009D02*
X128422857Y-91068628D01*
X128422857Y-91068628D02*
X128041905Y-91068628D01*
X128946667Y-90544819D02*
X129565714Y-90544819D01*
X129565714Y-90544819D02*
X129232381Y-90925771D01*
X129232381Y-90925771D02*
X129375238Y-90925771D01*
X129375238Y-90925771D02*
X129470476Y-90973390D01*
X129470476Y-90973390D02*
X129518095Y-91021009D01*
X129518095Y-91021009D02*
X129565714Y-91116247D01*
X129565714Y-91116247D02*
X129565714Y-91354342D01*
X129565714Y-91354342D02*
X129518095Y-91449580D01*
X129518095Y-91449580D02*
X129470476Y-91497200D01*
X129470476Y-91497200D02*
X129375238Y-91544819D01*
X129375238Y-91544819D02*
X129089524Y-91544819D01*
X129089524Y-91544819D02*
X128994286Y-91497200D01*
X128994286Y-91497200D02*
X128946667Y-91449580D01*
X117416667Y-121727200D02*
X117559524Y-121774819D01*
X117559524Y-121774819D02*
X117797619Y-121774819D01*
X117797619Y-121774819D02*
X117892857Y-121727200D01*
X117892857Y-121727200D02*
X117940476Y-121679580D01*
X117940476Y-121679580D02*
X117988095Y-121584342D01*
X117988095Y-121584342D02*
X117988095Y-121489104D01*
X117988095Y-121489104D02*
X117940476Y-121393866D01*
X117940476Y-121393866D02*
X117892857Y-121346247D01*
X117892857Y-121346247D02*
X117797619Y-121298628D01*
X117797619Y-121298628D02*
X117607143Y-121251009D01*
X117607143Y-121251009D02*
X117511905Y-121203390D01*
X117511905Y-121203390D02*
X117464286Y-121155771D01*
X117464286Y-121155771D02*
X117416667Y-121060533D01*
X117416667Y-121060533D02*
X117416667Y-120965295D01*
X117416667Y-120965295D02*
X117464286Y-120870057D01*
X117464286Y-120870057D02*
X117511905Y-120822438D01*
X117511905Y-120822438D02*
X117607143Y-120774819D01*
X117607143Y-120774819D02*
X117845238Y-120774819D01*
X117845238Y-120774819D02*
X117988095Y-120822438D01*
X118321429Y-120774819D02*
X118559524Y-121774819D01*
X118559524Y-121774819D02*
X118750000Y-121060533D01*
X118750000Y-121060533D02*
X118940476Y-121774819D01*
X118940476Y-121774819D02*
X119178572Y-120774819D01*
X119988095Y-121108152D02*
X119988095Y-121774819D01*
X119750000Y-120727200D02*
X119511905Y-121441485D01*
X119511905Y-121441485D02*
X120130952Y-121441485D01*
X172606667Y-117847200D02*
X172749524Y-117894819D01*
X172749524Y-117894819D02*
X172987619Y-117894819D01*
X172987619Y-117894819D02*
X173082857Y-117847200D01*
X173082857Y-117847200D02*
X173130476Y-117799580D01*
X173130476Y-117799580D02*
X173178095Y-117704342D01*
X173178095Y-117704342D02*
X173178095Y-117609104D01*
X173178095Y-117609104D02*
X173130476Y-117513866D01*
X173130476Y-117513866D02*
X173082857Y-117466247D01*
X173082857Y-117466247D02*
X172987619Y-117418628D01*
X172987619Y-117418628D02*
X172797143Y-117371009D01*
X172797143Y-117371009D02*
X172701905Y-117323390D01*
X172701905Y-117323390D02*
X172654286Y-117275771D01*
X172654286Y-117275771D02*
X172606667Y-117180533D01*
X172606667Y-117180533D02*
X172606667Y-117085295D01*
X172606667Y-117085295D02*
X172654286Y-116990057D01*
X172654286Y-116990057D02*
X172701905Y-116942438D01*
X172701905Y-116942438D02*
X172797143Y-116894819D01*
X172797143Y-116894819D02*
X173035238Y-116894819D01*
X173035238Y-116894819D02*
X173178095Y-116942438D01*
X173511429Y-116894819D02*
X173749524Y-117894819D01*
X173749524Y-117894819D02*
X173940000Y-117180533D01*
X173940000Y-117180533D02*
X174130476Y-117894819D01*
X174130476Y-117894819D02*
X174368572Y-116894819D01*
X175225714Y-116894819D02*
X174749524Y-116894819D01*
X174749524Y-116894819D02*
X174701905Y-117371009D01*
X174701905Y-117371009D02*
X174749524Y-117323390D01*
X174749524Y-117323390D02*
X174844762Y-117275771D01*
X174844762Y-117275771D02*
X175082857Y-117275771D01*
X175082857Y-117275771D02*
X175178095Y-117323390D01*
X175178095Y-117323390D02*
X175225714Y-117371009D01*
X175225714Y-117371009D02*
X175273333Y-117466247D01*
X175273333Y-117466247D02*
X175273333Y-117704342D01*
X175273333Y-117704342D02*
X175225714Y-117799580D01*
X175225714Y-117799580D02*
X175178095Y-117847200D01*
X175178095Y-117847200D02*
X175082857Y-117894819D01*
X175082857Y-117894819D02*
X174844762Y-117894819D01*
X174844762Y-117894819D02*
X174749524Y-117847200D01*
X174749524Y-117847200D02*
X174701905Y-117799580D01*
X182890476Y-96407200D02*
X183033333Y-96454819D01*
X183033333Y-96454819D02*
X183271428Y-96454819D01*
X183271428Y-96454819D02*
X183366666Y-96407200D01*
X183366666Y-96407200D02*
X183414285Y-96359580D01*
X183414285Y-96359580D02*
X183461904Y-96264342D01*
X183461904Y-96264342D02*
X183461904Y-96169104D01*
X183461904Y-96169104D02*
X183414285Y-96073866D01*
X183414285Y-96073866D02*
X183366666Y-96026247D01*
X183366666Y-96026247D02*
X183271428Y-95978628D01*
X183271428Y-95978628D02*
X183080952Y-95931009D01*
X183080952Y-95931009D02*
X182985714Y-95883390D01*
X182985714Y-95883390D02*
X182938095Y-95835771D01*
X182938095Y-95835771D02*
X182890476Y-95740533D01*
X182890476Y-95740533D02*
X182890476Y-95645295D01*
X182890476Y-95645295D02*
X182938095Y-95550057D01*
X182938095Y-95550057D02*
X182985714Y-95502438D01*
X182985714Y-95502438D02*
X183080952Y-95454819D01*
X183080952Y-95454819D02*
X183319047Y-95454819D01*
X183319047Y-95454819D02*
X183461904Y-95502438D01*
X183795238Y-95454819D02*
X184033333Y-96454819D01*
X184033333Y-96454819D02*
X184223809Y-95740533D01*
X184223809Y-95740533D02*
X184414285Y-96454819D01*
X184414285Y-96454819D02*
X184652381Y-95454819D01*
X185557142Y-96454819D02*
X184985714Y-96454819D01*
X185271428Y-96454819D02*
X185271428Y-95454819D01*
X185271428Y-95454819D02*
X185176190Y-95597676D01*
X185176190Y-95597676D02*
X185080952Y-95692914D01*
X185080952Y-95692914D02*
X184985714Y-95740533D01*
X186176190Y-95454819D02*
X186271428Y-95454819D01*
X186271428Y-95454819D02*
X186366666Y-95502438D01*
X186366666Y-95502438D02*
X186414285Y-95550057D01*
X186414285Y-95550057D02*
X186461904Y-95645295D01*
X186461904Y-95645295D02*
X186509523Y-95835771D01*
X186509523Y-95835771D02*
X186509523Y-96073866D01*
X186509523Y-96073866D02*
X186461904Y-96264342D01*
X186461904Y-96264342D02*
X186414285Y-96359580D01*
X186414285Y-96359580D02*
X186366666Y-96407200D01*
X186366666Y-96407200D02*
X186271428Y-96454819D01*
X186271428Y-96454819D02*
X186176190Y-96454819D01*
X186176190Y-96454819D02*
X186080952Y-96407200D01*
X186080952Y-96407200D02*
X186033333Y-96359580D01*
X186033333Y-96359580D02*
X185985714Y-96264342D01*
X185985714Y-96264342D02*
X185938095Y-96073866D01*
X185938095Y-96073866D02*
X185938095Y-95835771D01*
X185938095Y-95835771D02*
X185985714Y-95645295D01*
X185985714Y-95645295D02*
X186033333Y-95550057D01*
X186033333Y-95550057D02*
X186080952Y-95502438D01*
X186080952Y-95502438D02*
X186176190Y-95454819D01*
X110416667Y-114727200D02*
X110559524Y-114774819D01*
X110559524Y-114774819D02*
X110797619Y-114774819D01*
X110797619Y-114774819D02*
X110892857Y-114727200D01*
X110892857Y-114727200D02*
X110940476Y-114679580D01*
X110940476Y-114679580D02*
X110988095Y-114584342D01*
X110988095Y-114584342D02*
X110988095Y-114489104D01*
X110988095Y-114489104D02*
X110940476Y-114393866D01*
X110940476Y-114393866D02*
X110892857Y-114346247D01*
X110892857Y-114346247D02*
X110797619Y-114298628D01*
X110797619Y-114298628D02*
X110607143Y-114251009D01*
X110607143Y-114251009D02*
X110511905Y-114203390D01*
X110511905Y-114203390D02*
X110464286Y-114155771D01*
X110464286Y-114155771D02*
X110416667Y-114060533D01*
X110416667Y-114060533D02*
X110416667Y-113965295D01*
X110416667Y-113965295D02*
X110464286Y-113870057D01*
X110464286Y-113870057D02*
X110511905Y-113822438D01*
X110511905Y-113822438D02*
X110607143Y-113774819D01*
X110607143Y-113774819D02*
X110845238Y-113774819D01*
X110845238Y-113774819D02*
X110988095Y-113822438D01*
X111321429Y-113774819D02*
X111559524Y-114774819D01*
X111559524Y-114774819D02*
X111750000Y-114060533D01*
X111750000Y-114060533D02*
X111940476Y-114774819D01*
X111940476Y-114774819D02*
X112178572Y-113774819D01*
X113083333Y-114774819D02*
X112511905Y-114774819D01*
X112797619Y-114774819D02*
X112797619Y-113774819D01*
X112797619Y-113774819D02*
X112702381Y-113917676D01*
X112702381Y-113917676D02*
X112607143Y-114012914D01*
X112607143Y-114012914D02*
X112511905Y-114060533D01*
X172606667Y-127947200D02*
X172749524Y-127994819D01*
X172749524Y-127994819D02*
X172987619Y-127994819D01*
X172987619Y-127994819D02*
X173082857Y-127947200D01*
X173082857Y-127947200D02*
X173130476Y-127899580D01*
X173130476Y-127899580D02*
X173178095Y-127804342D01*
X173178095Y-127804342D02*
X173178095Y-127709104D01*
X173178095Y-127709104D02*
X173130476Y-127613866D01*
X173130476Y-127613866D02*
X173082857Y-127566247D01*
X173082857Y-127566247D02*
X172987619Y-127518628D01*
X172987619Y-127518628D02*
X172797143Y-127471009D01*
X172797143Y-127471009D02*
X172701905Y-127423390D01*
X172701905Y-127423390D02*
X172654286Y-127375771D01*
X172654286Y-127375771D02*
X172606667Y-127280533D01*
X172606667Y-127280533D02*
X172606667Y-127185295D01*
X172606667Y-127185295D02*
X172654286Y-127090057D01*
X172654286Y-127090057D02*
X172701905Y-127042438D01*
X172701905Y-127042438D02*
X172797143Y-126994819D01*
X172797143Y-126994819D02*
X173035238Y-126994819D01*
X173035238Y-126994819D02*
X173178095Y-127042438D01*
X173511429Y-126994819D02*
X173749524Y-127994819D01*
X173749524Y-127994819D02*
X173940000Y-127280533D01*
X173940000Y-127280533D02*
X174130476Y-127994819D01*
X174130476Y-127994819D02*
X174368572Y-126994819D01*
X174654286Y-126994819D02*
X175320952Y-126994819D01*
X175320952Y-126994819D02*
X174892381Y-127994819D01*
X184086667Y-114727200D02*
X184229524Y-114774819D01*
X184229524Y-114774819D02*
X184467619Y-114774819D01*
X184467619Y-114774819D02*
X184562857Y-114727200D01*
X184562857Y-114727200D02*
X184610476Y-114679580D01*
X184610476Y-114679580D02*
X184658095Y-114584342D01*
X184658095Y-114584342D02*
X184658095Y-114489104D01*
X184658095Y-114489104D02*
X184610476Y-114393866D01*
X184610476Y-114393866D02*
X184562857Y-114346247D01*
X184562857Y-114346247D02*
X184467619Y-114298628D01*
X184467619Y-114298628D02*
X184277143Y-114251009D01*
X184277143Y-114251009D02*
X184181905Y-114203390D01*
X184181905Y-114203390D02*
X184134286Y-114155771D01*
X184134286Y-114155771D02*
X184086667Y-114060533D01*
X184086667Y-114060533D02*
X184086667Y-113965295D01*
X184086667Y-113965295D02*
X184134286Y-113870057D01*
X184134286Y-113870057D02*
X184181905Y-113822438D01*
X184181905Y-113822438D02*
X184277143Y-113774819D01*
X184277143Y-113774819D02*
X184515238Y-113774819D01*
X184515238Y-113774819D02*
X184658095Y-113822438D01*
X184991429Y-113774819D02*
X185229524Y-114774819D01*
X185229524Y-114774819D02*
X185420000Y-114060533D01*
X185420000Y-114060533D02*
X185610476Y-114774819D01*
X185610476Y-114774819D02*
X185848572Y-113774819D01*
X186658095Y-113774819D02*
X186467619Y-113774819D01*
X186467619Y-113774819D02*
X186372381Y-113822438D01*
X186372381Y-113822438D02*
X186324762Y-113870057D01*
X186324762Y-113870057D02*
X186229524Y-114012914D01*
X186229524Y-114012914D02*
X186181905Y-114203390D01*
X186181905Y-114203390D02*
X186181905Y-114584342D01*
X186181905Y-114584342D02*
X186229524Y-114679580D01*
X186229524Y-114679580D02*
X186277143Y-114727200D01*
X186277143Y-114727200D02*
X186372381Y-114774819D01*
X186372381Y-114774819D02*
X186562857Y-114774819D01*
X186562857Y-114774819D02*
X186658095Y-114727200D01*
X186658095Y-114727200D02*
X186705714Y-114679580D01*
X186705714Y-114679580D02*
X186753333Y-114584342D01*
X186753333Y-114584342D02*
X186753333Y-114346247D01*
X186753333Y-114346247D02*
X186705714Y-114251009D01*
X186705714Y-114251009D02*
X186658095Y-114203390D01*
X186658095Y-114203390D02*
X186562857Y-114155771D01*
X186562857Y-114155771D02*
X186372381Y-114155771D01*
X186372381Y-114155771D02*
X186277143Y-114203390D01*
X186277143Y-114203390D02*
X186229524Y-114251009D01*
X186229524Y-114251009D02*
X186181905Y-114346247D01*
X116331009Y-101913333D02*
X116331009Y-102246666D01*
X116854819Y-102246666D02*
X115854819Y-102246666D01*
X115854819Y-102246666D02*
X115854819Y-101770476D01*
X116331009Y-101056190D02*
X116378628Y-100913333D01*
X116378628Y-100913333D02*
X116426247Y-100865714D01*
X116426247Y-100865714D02*
X116521485Y-100818095D01*
X116521485Y-100818095D02*
X116664342Y-100818095D01*
X116664342Y-100818095D02*
X116759580Y-100865714D01*
X116759580Y-100865714D02*
X116807200Y-100913333D01*
X116807200Y-100913333D02*
X116854819Y-101008571D01*
X116854819Y-101008571D02*
X116854819Y-101389523D01*
X116854819Y-101389523D02*
X115854819Y-101389523D01*
X115854819Y-101389523D02*
X115854819Y-101056190D01*
X115854819Y-101056190D02*
X115902438Y-100960952D01*
X115902438Y-100960952D02*
X115950057Y-100913333D01*
X115950057Y-100913333D02*
X116045295Y-100865714D01*
X116045295Y-100865714D02*
X116140533Y-100865714D01*
X116140533Y-100865714D02*
X116235771Y-100913333D01*
X116235771Y-100913333D02*
X116283390Y-100960952D01*
X116283390Y-100960952D02*
X116331009Y-101056190D01*
X116331009Y-101056190D02*
X116331009Y-101389523D01*
X116854819Y-99865714D02*
X116854819Y-100437142D01*
X116854819Y-100151428D02*
X115854819Y-100151428D01*
X115854819Y-100151428D02*
X115997676Y-100246666D01*
X115997676Y-100246666D02*
X116092914Y-100341904D01*
X116092914Y-100341904D02*
X116140533Y-100437142D01*
%TO.C,SW2*%
D12*
X108250000Y-131820000D02*
X108250000Y-133320000D01*
X109500000Y-135820000D02*
X114000000Y-135820000D01*
X114000000Y-129320000D02*
X109500000Y-129320000D01*
X115250000Y-133320000D02*
X115250000Y-131820000D01*
%TO.C,R1*%
X129820000Y-111240000D02*
X130590000Y-111240000D01*
X137900000Y-111240000D02*
X137130000Y-111240000D01*
X130590000Y-109870000D02*
X137130000Y-109870000D01*
X137130000Y-112610000D01*
X130590000Y-112610000D01*
X130590000Y-109870000D01*
%TO.C,RN1*%
X157990000Y-107390000D02*
X157990000Y-110010000D01*
X155370000Y-107390000D02*
X178390000Y-107390000D01*
X178390000Y-110010000D01*
X155370000Y-110010000D01*
X155370000Y-107390000D01*
%TO.C,J2*%
X129940000Y-135387000D02*
X129940000Y-138147000D01*
X160530000Y-135387000D02*
X129940000Y-135387000D01*
X160530000Y-135387000D02*
X160530000Y-138147000D01*
X160530000Y-138147000D02*
X129940000Y-138147000D01*
X161800000Y-135387000D02*
X163180000Y-135387000D01*
X163180000Y-135387000D02*
X163180000Y-136767000D01*
%TO.C,SW9*%
X104440000Y-91150000D02*
X104440000Y-92650000D01*
X105690000Y-95150000D02*
X110190000Y-95150000D01*
X110190000Y-88650000D02*
X105690000Y-88650000D01*
X111440000Y-92650000D02*
X111440000Y-91150000D01*
%TO.C,U2*%
X124910000Y-99700000D02*
X124910000Y-105000000D01*
X124910000Y-105000000D02*
X142810000Y-105000000D01*
X142810000Y-99700000D02*
X124910000Y-99700000D01*
X142810000Y-101350000D02*
X142810000Y-99700000D01*
X142810000Y-105000000D02*
X142810000Y-103350000D01*
X142810000Y-103350000D02*
G75*
G02*
X142810000Y-101350000I0J1000000D01*
G01*
%TO.C,SW3*%
X101250000Y-124820000D02*
X101250000Y-126320000D01*
X102500000Y-128820000D02*
X107000000Y-128820000D01*
X107000000Y-122320000D02*
X102500000Y-122320000D01*
X108250000Y-126320000D02*
X108250000Y-124820000D01*
%TO.C,C5*%
X183590000Y-105930000D02*
X183590000Y-101390000D01*
X183646000Y-105930000D02*
X183590000Y-105930000D01*
X185674000Y-101390000D02*
X185730000Y-101390000D01*
X185730000Y-101390000D02*
X185730000Y-105930000D01*
%TO.C,SW11*%
X142985000Y-124980000D02*
X142985000Y-126480000D01*
X144235000Y-128980000D02*
X148735000Y-128980000D01*
X148735000Y-122480000D02*
X144235000Y-122480000D01*
X149985000Y-126480000D02*
X149985000Y-124980000D01*
%TO.C,SW12*%
X143060000Y-115570000D02*
X143060000Y-117070000D01*
X144310000Y-119570000D02*
X148810000Y-119570000D01*
X148810000Y-113070000D02*
X144310000Y-113070000D01*
X150060000Y-117070000D02*
X150060000Y-115570000D01*
%TO.C,C2*%
X143775225Y-89445000D02*
X144275225Y-89445000D01*
X144025225Y-89195000D02*
X144025225Y-89695000D01*
X146580000Y-88340000D02*
X146580000Y-93500000D01*
X146620000Y-88340000D02*
X146620000Y-93500000D01*
X146660000Y-88341000D02*
X146660000Y-93499000D01*
X146700000Y-88343000D02*
X146700000Y-93497000D01*
X146740000Y-88345000D02*
X146740000Y-93495000D01*
X146780000Y-88348000D02*
X146780000Y-93492000D01*
X146820000Y-88351000D02*
X146820000Y-89880000D01*
X146820000Y-91960000D02*
X146820000Y-93489000D01*
X146860000Y-88355000D02*
X146860000Y-89880000D01*
X146860000Y-91960000D02*
X146860000Y-93485000D01*
X146900000Y-88360000D02*
X146900000Y-89880000D01*
X146900000Y-91960000D02*
X146900000Y-93480000D01*
X146940000Y-88365000D02*
X146940000Y-89880000D01*
X146940000Y-91960000D02*
X146940000Y-93475000D01*
X146980000Y-88371000D02*
X146980000Y-89880000D01*
X146980000Y-91960000D02*
X146980000Y-93469000D01*
X147020000Y-88377000D02*
X147020000Y-89880000D01*
X147020000Y-91960000D02*
X147020000Y-93463000D01*
X147060000Y-88384000D02*
X147060000Y-89880000D01*
X147060000Y-91960000D02*
X147060000Y-93456000D01*
X147100000Y-88392000D02*
X147100000Y-89880000D01*
X147100000Y-91960000D02*
X147100000Y-93448000D01*
X147140000Y-88401000D02*
X147140000Y-89880000D01*
X147140000Y-91960000D02*
X147140000Y-93439000D01*
X147180000Y-88410000D02*
X147180000Y-89880000D01*
X147180000Y-91960000D02*
X147180000Y-93430000D01*
X147220000Y-88419000D02*
X147220000Y-89880000D01*
X147220000Y-91960000D02*
X147220000Y-93421000D01*
X147260000Y-88430000D02*
X147260000Y-89880000D01*
X147260000Y-91960000D02*
X147260000Y-93410000D01*
X147300000Y-88441000D02*
X147300000Y-89880000D01*
X147300000Y-91960000D02*
X147300000Y-93399000D01*
X147340000Y-88453000D02*
X147340000Y-89880000D01*
X147340000Y-91960000D02*
X147340000Y-93387000D01*
X147380000Y-88465000D02*
X147380000Y-89880000D01*
X147380000Y-91960000D02*
X147380000Y-93375000D01*
X147420000Y-88478000D02*
X147420000Y-89880000D01*
X147420000Y-91960000D02*
X147420000Y-93362000D01*
X147460000Y-88492000D02*
X147460000Y-89880000D01*
X147460000Y-91960000D02*
X147460000Y-93348000D01*
X147500000Y-88507000D02*
X147500000Y-89880000D01*
X147500000Y-91960000D02*
X147500000Y-93333000D01*
X147540000Y-88522000D02*
X147540000Y-89880000D01*
X147540000Y-91960000D02*
X147540000Y-93318000D01*
X147580000Y-88538000D02*
X147580000Y-89880000D01*
X147580000Y-91960000D02*
X147580000Y-93302000D01*
X147620000Y-88555000D02*
X147620000Y-89880000D01*
X147620000Y-91960000D02*
X147620000Y-93285000D01*
X147660000Y-88573000D02*
X147660000Y-89880000D01*
X147660000Y-91960000D02*
X147660000Y-93267000D01*
X147700000Y-88591000D02*
X147700000Y-89880000D01*
X147700000Y-91960000D02*
X147700000Y-93249000D01*
X147740000Y-88611000D02*
X147740000Y-89880000D01*
X147740000Y-91960000D02*
X147740000Y-93229000D01*
X147780000Y-88631000D02*
X147780000Y-89880000D01*
X147780000Y-91960000D02*
X147780000Y-93209000D01*
X147820000Y-88652000D02*
X147820000Y-89880000D01*
X147820000Y-91960000D02*
X147820000Y-93188000D01*
X147860000Y-88674000D02*
X147860000Y-89880000D01*
X147860000Y-91960000D02*
X147860000Y-93166000D01*
X147900000Y-88697000D02*
X147900000Y-89880000D01*
X147900000Y-91960000D02*
X147900000Y-93143000D01*
X147940000Y-88721000D02*
X147940000Y-89880000D01*
X147940000Y-91960000D02*
X147940000Y-93119000D01*
X147980000Y-88745000D02*
X147980000Y-89880000D01*
X147980000Y-91960000D02*
X147980000Y-93095000D01*
X148020000Y-88771000D02*
X148020000Y-89880000D01*
X148020000Y-91960000D02*
X148020000Y-93069000D01*
X148060000Y-88798000D02*
X148060000Y-89880000D01*
X148060000Y-91960000D02*
X148060000Y-93042000D01*
X148100000Y-88826000D02*
X148100000Y-89880000D01*
X148100000Y-91960000D02*
X148100000Y-93014000D01*
X148140000Y-88855000D02*
X148140000Y-89880000D01*
X148140000Y-91960000D02*
X148140000Y-92985000D01*
X148180000Y-88885000D02*
X148180000Y-89880000D01*
X148180000Y-91960000D02*
X148180000Y-92955000D01*
X148220000Y-88917000D02*
X148220000Y-89880000D01*
X148220000Y-91960000D02*
X148220000Y-92923000D01*
X148260000Y-88950000D02*
X148260000Y-89880000D01*
X148260000Y-91960000D02*
X148260000Y-92890000D01*
X148300000Y-88984000D02*
X148300000Y-89880000D01*
X148300000Y-91960000D02*
X148300000Y-92856000D01*
X148340000Y-89019000D02*
X148340000Y-89880000D01*
X148340000Y-91960000D02*
X148340000Y-92821000D01*
X148380000Y-89056000D02*
X148380000Y-89880000D01*
X148380000Y-91960000D02*
X148380000Y-92784000D01*
X148420000Y-89095000D02*
X148420000Y-89880000D01*
X148420000Y-91960000D02*
X148420000Y-92745000D01*
X148460000Y-89135000D02*
X148460000Y-89880000D01*
X148460000Y-91960000D02*
X148460000Y-92705000D01*
X148500000Y-89177000D02*
X148500000Y-89880000D01*
X148500000Y-91960000D02*
X148500000Y-92663000D01*
X148540000Y-89221000D02*
X148540000Y-89880000D01*
X148540000Y-91960000D02*
X148540000Y-92619000D01*
X148580000Y-89268000D02*
X148580000Y-89880000D01*
X148580000Y-91960000D02*
X148580000Y-92572000D01*
X148620000Y-89316000D02*
X148620000Y-89880000D01*
X148620000Y-91960000D02*
X148620000Y-92524000D01*
X148660000Y-89367000D02*
X148660000Y-89880000D01*
X148660000Y-91960000D02*
X148660000Y-92473000D01*
X148700000Y-89421000D02*
X148700000Y-89880000D01*
X148700000Y-91960000D02*
X148700000Y-92419000D01*
X148740000Y-89477000D02*
X148740000Y-89880000D01*
X148740000Y-91960000D02*
X148740000Y-92363000D01*
X148780000Y-89537000D02*
X148780000Y-89880000D01*
X148780000Y-91960000D02*
X148780000Y-92303000D01*
X148820000Y-89601000D02*
X148820000Y-89880000D01*
X148820000Y-91960000D02*
X148820000Y-92239000D01*
X148860000Y-89669000D02*
X148860000Y-89880000D01*
X148860000Y-91960000D02*
X148860000Y-92171000D01*
X148900000Y-89743000D02*
X148900000Y-92097000D01*
X148940000Y-89822000D02*
X148940000Y-92018000D01*
X148980000Y-89909000D02*
X148980000Y-91931000D01*
X149020000Y-90006000D02*
X149020000Y-91834000D01*
X149060000Y-90115000D02*
X149060000Y-91725000D01*
X149100000Y-90243000D02*
X149100000Y-91597000D01*
X149140000Y-90403000D02*
X149140000Y-91437000D01*
X149180000Y-90637000D02*
X149180000Y-91203000D01*
X149200000Y-90920000D02*
G75*
G02*
X143960000Y-90920000I-2620000J0D01*
G01*
X143960000Y-90920000D02*
G75*
G02*
X149200000Y-90920000I2620000J0D01*
G01*
%TO.C,SW8*%
X181920000Y-127980000D02*
X181920000Y-129480000D01*
X183170000Y-131980000D02*
X187670000Y-131980000D01*
X187670000Y-125480000D02*
X183170000Y-125480000D01*
X188920000Y-129480000D02*
X188920000Y-127980000D01*
%TO.C,C1*%
X153110000Y-91920000D02*
X153110000Y-87380000D01*
X153166000Y-91920000D02*
X153110000Y-91920000D01*
X155194000Y-87380000D02*
X155250000Y-87380000D01*
X155250000Y-87380000D02*
X155250000Y-91920000D01*
%TO.C,J1*%
X139596667Y-82722500D02*
X139596667Y-84962500D01*
X139596667Y-84962500D02*
X143790000Y-84962500D01*
X139836667Y-80982500D02*
X139836667Y-84722500D01*
X139836667Y-84722500D02*
X153283333Y-84722500D01*
X153283333Y-84722500D02*
X153283333Y-80982500D01*
%TO.C,R2*%
X178080000Y-111240000D02*
X178850000Y-111240000D01*
X186160000Y-111240000D02*
X185390000Y-111240000D01*
X178850000Y-109870000D02*
X185390000Y-109870000D01*
X185390000Y-112610000D01*
X178850000Y-112610000D01*
X178850000Y-109870000D01*
%TO.C,C3*%
X122630000Y-103390000D02*
X122630000Y-98850000D01*
X122686000Y-103390000D02*
X122630000Y-103390000D01*
X124714000Y-98850000D02*
X124770000Y-98850000D01*
X124770000Y-98850000D02*
X124770000Y-103390000D01*
%TO.C,U1*%
X163010000Y-99700000D02*
X163010000Y-101350000D01*
X163010000Y-103350000D02*
X163010000Y-105000000D01*
X163010000Y-105000000D02*
X183450000Y-105000000D01*
X183450000Y-99700000D02*
X163010000Y-99700000D01*
X183450000Y-105000000D02*
X183450000Y-99700000D01*
X163010000Y-101350000D02*
G75*
G02*
X163010000Y-103350000I0J-1000000D01*
G01*
%TO.C,R5*%
X189780000Y-98310000D02*
X189780000Y-99080000D01*
X189780000Y-106390000D02*
X189780000Y-105620000D01*
X188410000Y-99080000D02*
X191150000Y-99080000D01*
X191150000Y-105620000D01*
X188410000Y-105620000D01*
X188410000Y-99080000D01*
%TO.C,R3*%
X124740000Y-93460000D02*
X125510000Y-93460000D01*
X132820000Y-93460000D02*
X132050000Y-93460000D01*
X125510000Y-92090000D02*
X132050000Y-92090000D01*
X132050000Y-94830000D01*
X125510000Y-94830000D01*
X125510000Y-92090000D01*
%TO.C,SW4*%
X115250000Y-124820000D02*
X115250000Y-126320000D01*
X116500000Y-128820000D02*
X121000000Y-128820000D01*
X121000000Y-122320000D02*
X116500000Y-122320000D01*
X122250000Y-126320000D02*
X122250000Y-124820000D01*
%TO.C,SW5*%
X170440000Y-120940000D02*
X170440000Y-122440000D01*
X171690000Y-124940000D02*
X176190000Y-124940000D01*
X176190000Y-118440000D02*
X171690000Y-118440000D01*
X177440000Y-122440000D02*
X177440000Y-120940000D01*
%TO.C,C4*%
X160730000Y-105930000D02*
X160730000Y-101390000D01*
X160786000Y-105930000D02*
X160730000Y-105930000D01*
X162814000Y-101390000D02*
X162870000Y-101390000D01*
X162870000Y-101390000D02*
X162870000Y-105930000D01*
%TO.C,SW10*%
X181760000Y-91150000D02*
X181760000Y-92650000D01*
X183010000Y-95150000D02*
X187510000Y-95150000D01*
X187510000Y-88650000D02*
X183010000Y-88650000D01*
X188760000Y-92650000D02*
X188760000Y-91150000D01*
%TO.C,SW1*%
X108250000Y-117820000D02*
X108250000Y-119320000D01*
X109500000Y-121820000D02*
X114000000Y-121820000D01*
X114000000Y-115320000D02*
X109500000Y-115320000D01*
X115250000Y-119320000D02*
X115250000Y-117820000D01*
%TO.C,SW7*%
X170440000Y-131040000D02*
X170440000Y-132540000D01*
X171690000Y-135040000D02*
X176190000Y-135040000D01*
X176190000Y-128540000D02*
X171690000Y-128540000D01*
X177440000Y-132540000D02*
X177440000Y-131040000D01*
%TO.C,SW6*%
X181920000Y-117820000D02*
X181920000Y-119320000D01*
X183170000Y-121820000D02*
X187670000Y-121820000D01*
X187670000Y-115320000D02*
X183170000Y-115320000D01*
X188920000Y-119320000D02*
X188920000Y-117820000D01*
%TO.C,FB1*%
X118620000Y-97040000D02*
X118620000Y-98310000D01*
X118620000Y-105120000D02*
X118620000Y-103850000D01*
X117400000Y-98310000D02*
X119840000Y-98310000D01*
X119840000Y-103850000D01*
X117400000Y-103850000D01*
X117400000Y-98310000D01*
%TD*%
M02*
