%TF.GenerationSoftware,KiCad,Pcbnew,10.0.1*%
%TF.CreationDate,2026-04-28T20:18:45+02:00*%
%TF.ProjectId,AmigaPad,416d6967-6150-4616-942e-6b696361645f,1*%
%TF.SameCoordinates,Original*%
%TF.FileFunction,Soldermask,Top*%
%TF.FilePolarity,Negative*%
%FSLAX46Y46*%
G04 Gerber Fmt 4.6, Leading zero omitted, Abs format (unit mm)*
G04 Created by KiCad (PCBNEW 10.0.1) date 2026-04-28 20:18:45*
%MOMM*%
%LPD*%
G01*
G04 APERTURE LIST*
G04 Aperture macros list*
%AMRoundRect*
0 Rectangle with rounded corners*
0 $1 Rounding radius*
0 $2 $3 $4 $5 $6 $7 $8 $9 X,Y pos of 4 corners*
0 Add a 4 corners polygon primitive as box body*
4,1,4,$2,$3,$4,$5,$6,$7,$8,$9,$2,$3,0*
0 Add four circle primitives for the rounded corners*
1,1,$1+$1,$2,$3*
1,1,$1+$1,$4,$5*
1,1,$1+$1,$6,$7*
1,1,$1+$1,$8,$9*
0 Add four rect primitives between the rounded corners*
20,1,$1+$1,$2,$3,$4,$5,0*
20,1,$1+$1,$4,$5,$6,$7,0*
20,1,$1+$1,$6,$7,$8,$9,0*
20,1,$1+$1,$8,$9,$2,$3,0*%
G04 Aperture macros list end*
%ADD10C,2.000000*%
%ADD11C,1.600000*%
%ADD12R,1.600000X1.600000*%
%ADD13R,1.700000X1.700000*%
%ADD14C,1.700000*%
%ADD15RoundRect,0.250000X-0.550000X0.550000X-0.550000X-0.550000X0.550000X-0.550000X0.550000X0.550000X0*%
%ADD16RoundRect,0.250000X-0.550000X-0.550000X0.550000X-0.550000X0.550000X0.550000X-0.550000X0.550000X0*%
%ADD17RoundRect,0.250000X0.673333X1.490000X-0.673333X1.490000X-0.673333X-1.490000X0.673333X-1.490000X0*%
%ADD18RoundRect,0.250000X0.550000X-0.550000X0.550000X0.550000X-0.550000X0.550000X-0.550000X-0.550000X0*%
%ADD19C,2.100000*%
%ADD20C,1.750000*%
G04 APERTURE END LIST*
D10*
%TO.C,SW2*%
X108500000Y-130320000D03*
X115000000Y-130320000D03*
X108500000Y-134820000D03*
X115000000Y-134820000D03*
%TD*%
D11*
%TO.C,R1*%
X138940000Y-111240000D03*
X128780000Y-111240000D03*
%TD*%
D12*
%TO.C,RN1*%
X156720000Y-108700000D03*
D11*
X159260000Y-108700000D03*
X161800000Y-108700000D03*
X164340000Y-108700000D03*
X166880000Y-108700000D03*
X169420000Y-108700000D03*
X171960000Y-108700000D03*
X174500000Y-108700000D03*
X177040000Y-108700000D03*
%TD*%
D13*
%TO.C,J2*%
X161800000Y-136767000D03*
D14*
X159260000Y-136767000D03*
X156720000Y-136767000D03*
X154180000Y-136767000D03*
X151640000Y-136767000D03*
X149100000Y-136767000D03*
X146560000Y-136767000D03*
X144020000Y-136767000D03*
X141480000Y-136767000D03*
X138940000Y-136767000D03*
X136400000Y-136767000D03*
X133860000Y-136767000D03*
X131320000Y-136767000D03*
%TD*%
D10*
%TO.C,SW9*%
X104690000Y-89650000D03*
X111190000Y-89650000D03*
X104690000Y-94150000D03*
X111190000Y-94150000D03*
%TD*%
D15*
%TO.C,U2*%
X141480000Y-98540000D03*
D11*
X138940000Y-98540000D03*
X136400000Y-98540000D03*
X133860000Y-98540000D03*
X131320000Y-98540000D03*
X128780000Y-98540000D03*
X126240000Y-98540000D03*
X126240000Y-106160000D03*
X128780000Y-106160000D03*
X131320000Y-106160000D03*
X133860000Y-106160000D03*
X136400000Y-106160000D03*
X138940000Y-106160000D03*
X141480000Y-106160000D03*
%TD*%
D10*
%TO.C,SW3*%
X101500000Y-123320000D03*
X108000000Y-123320000D03*
X101500000Y-127820000D03*
X108000000Y-127820000D03*
%TD*%
D11*
%TO.C,C5*%
X184660000Y-101160000D03*
X184660000Y-106160000D03*
%TD*%
D10*
%TO.C,SW11*%
X143235000Y-123480000D03*
X149735000Y-123480000D03*
X143235000Y-127980000D03*
X149735000Y-127980000D03*
%TD*%
%TO.C,SW12*%
X143310000Y-114070000D03*
X149810000Y-114070000D03*
X143310000Y-118570000D03*
X149810000Y-118570000D03*
%TD*%
D16*
%TO.C,C2*%
X145330000Y-90920000D03*
D11*
X147830000Y-90920000D03*
%TD*%
D10*
%TO.C,SW8*%
X182170000Y-126480000D03*
X188670000Y-126480000D03*
X182170000Y-130980000D03*
X188670000Y-130980000D03*
%TD*%
D11*
%TO.C,C1*%
X154180000Y-87150000D03*
X154180000Y-92150000D03*
%TD*%
D17*
%TO.C,J1*%
X141020000Y-82722500D03*
X143790000Y-82722500D03*
X146560000Y-82722500D03*
X149330000Y-82722500D03*
X152100000Y-82722500D03*
%TD*%
D11*
%TO.C,R2*%
X187200000Y-111240000D03*
X177040000Y-111240000D03*
%TD*%
%TO.C,C3*%
X123700000Y-103620000D03*
X123700000Y-98620000D03*
%TD*%
D18*
%TO.C,U1*%
X164340000Y-106160000D03*
D11*
X166880000Y-106160000D03*
X169420000Y-106160000D03*
X171960000Y-106160000D03*
X174500000Y-106160000D03*
X177040000Y-106160000D03*
X179580000Y-106160000D03*
X182120000Y-106160000D03*
X182120000Y-98540000D03*
X179580000Y-98540000D03*
X177040000Y-98540000D03*
X174500000Y-98540000D03*
X171960000Y-98540000D03*
X169420000Y-98540000D03*
X166880000Y-98540000D03*
X164340000Y-98540000D03*
%TD*%
%TO.C,R5*%
X189780000Y-97270000D03*
X189780000Y-107430000D03*
%TD*%
%TO.C,R3*%
X123700000Y-93460000D03*
X133860000Y-93460000D03*
%TD*%
D10*
%TO.C,SW4*%
X115500000Y-123320000D03*
X122000000Y-123320000D03*
X115500000Y-127820000D03*
X122000000Y-127820000D03*
%TD*%
%TO.C,SW5*%
X170690000Y-119440000D03*
X177190000Y-119440000D03*
X170690000Y-123940000D03*
X177190000Y-123940000D03*
%TD*%
D11*
%TO.C,C4*%
X161800000Y-106160000D03*
X161800000Y-101160000D03*
%TD*%
D10*
%TO.C,SW10*%
X182010000Y-89650000D03*
X188510000Y-89650000D03*
X182010000Y-94150000D03*
X188510000Y-94150000D03*
%TD*%
%TO.C,SW1*%
X108500000Y-116320000D03*
X115000000Y-116320000D03*
X108500000Y-120820000D03*
X115000000Y-120820000D03*
%TD*%
%TO.C,SW7*%
X170690000Y-129540000D03*
X177190000Y-129540000D03*
X170690000Y-134040000D03*
X177190000Y-134040000D03*
%TD*%
%TO.C,SW6*%
X182170000Y-116320000D03*
X188670000Y-116320000D03*
X182170000Y-120820000D03*
X188670000Y-120820000D03*
%TD*%
D11*
%TO.C,FB1*%
X118620000Y-106160000D03*
X118620000Y-96000000D03*
%TD*%
D19*
%TO.C,SW13*%
X111700000Y-85840000D03*
X104690000Y-85840000D03*
D20*
X110450000Y-83350000D03*
X105950000Y-83350000D03*
%TD*%
D19*
%TO.C,SW14*%
X188510000Y-85840000D03*
X181500000Y-85840000D03*
D20*
X187260000Y-83350000D03*
X182760000Y-83350000D03*
%TD*%
M02*
