M48
; DRILL file KiCad 10.0.1 date 2026-04-28T20:18:48
; FORMAT={-:-/ absolute / metric / decimal}
; #@! TF.CreationDate,2026-04-28T20:18:48+02:00
; #@! TF.GenerationSoftware,Kicad,Pcbnew,10.0.1
; #@! TF.FileFunction,Plated,1,2,PTH
FMAT,2
METRIC
; #@! TA.AperFunction,Plated,PTH,ViaDrill
T1C0.300
; #@! TA.AperFunction,Plated,PTH,ComponentDrill
T2C0.800
; #@! TA.AperFunction,Plated,PTH,ComponentDrill
T3C0.990
; #@! TA.AperFunction,Plated,PTH,ComponentDrill
T4C1.000
; #@! TA.AperFunction,Plated,PTH,ComponentDrill
T5C1.100
; #@! TA.AperFunction,Plated,PTH,ComponentDrill
T6C1.300
%
G90
G05
T1
X99.57Y-88.38
X99.57Y-89.65
X99.57Y-90.92
X99.57Y-130.29
X99.57Y-131.56
X99.57Y-132.83
X102.11Y-82.03
X103.38Y-82.03
X103.38Y-137.91
X104.65Y-137.91
X105.92Y-137.91
X135.13Y-82.03
X136.4Y-82.03
X137.67Y-82.03
X155.45Y-82.03
X156.72Y-82.03
X157.99Y-82.03
X187.2Y-137.91
X188.47Y-137.91
X189.74Y-82.03
X189.74Y-137.91
X191.01Y-82.03
X193.55Y-88.38
X193.55Y-89.65
X193.55Y-90.92
X193.55Y-130.29
X193.55Y-131.56
X193.55Y-132.83
T2
X118.62Y-96.0
X118.62Y-106.16
X123.7Y-93.46
X123.7Y-98.62
X123.7Y-103.62
X126.24Y-98.54
X126.24Y-106.16
X128.78Y-98.54
X128.78Y-106.16
X128.78Y-111.24
X131.32Y-98.54
X131.32Y-106.16
X133.86Y-93.46
X133.86Y-98.54
X133.86Y-106.16
X136.4Y-98.54
X136.4Y-106.16
X138.94Y-98.54
X138.94Y-106.16
X138.94Y-111.24
X141.48Y-98.54
X141.48Y-106.16
X145.33Y-90.92
X147.83Y-90.92
X154.18Y-87.15
X154.18Y-92.15
X156.72Y-108.7
X159.26Y-108.7
X161.8Y-101.16
X161.8Y-106.16
X161.8Y-108.7
X164.34Y-98.54
X164.34Y-106.16
X164.34Y-108.7
X166.88Y-98.54
X166.88Y-106.16
X166.88Y-108.7
X169.42Y-98.54
X169.42Y-106.16
X169.42Y-108.7
X171.96Y-98.54
X171.96Y-106.16
X171.96Y-108.7
X174.5Y-98.54
X174.5Y-106.16
X174.5Y-108.7
X177.04Y-98.54
X177.04Y-106.16
X177.04Y-108.7
X177.04Y-111.24
X179.58Y-98.54
X179.58Y-106.16
X182.12Y-98.54
X182.12Y-106.16
X184.66Y-101.16
X184.66Y-106.16
X187.2Y-111.24
X189.78Y-97.27
X189.78Y-107.43
T3
X105.95Y-83.35
X110.45Y-83.35
X182.76Y-83.35
X187.26Y-83.35
T4
X131.32Y-136.767
X133.86Y-136.767
X136.4Y-136.767
X138.94Y-136.767
X141.48Y-136.767
X144.02Y-136.767
X146.56Y-136.767
X149.1Y-136.767
X151.64Y-136.767
X154.18Y-136.767
X156.72Y-136.767
X159.26Y-136.767
X161.8Y-136.767
T5
X101.5Y-123.32
X101.5Y-127.82
X104.69Y-89.65
X104.69Y-94.15
X108.0Y-123.32
X108.0Y-127.82
X108.5Y-116.32
X108.5Y-120.82
X108.5Y-130.32
X108.5Y-134.82
X111.19Y-89.65
X111.19Y-94.15
X115.0Y-116.32
X115.0Y-120.82
X115.0Y-130.32
X115.0Y-134.82
X115.5Y-123.32
X115.5Y-127.82
X122.0Y-123.32
X122.0Y-127.82
X143.235Y-123.48
X143.235Y-127.98
X143.31Y-114.07
X143.31Y-118.57
X149.735Y-123.48
X149.735Y-127.98
X149.81Y-114.07
X149.81Y-118.57
X170.69Y-119.44
X170.69Y-123.94
X170.69Y-129.54
X170.69Y-134.04
X177.19Y-119.44
X177.19Y-123.94
X177.19Y-129.54
X177.19Y-134.04
X182.01Y-89.65
X182.01Y-94.15
X182.17Y-116.32
X182.17Y-120.82
X182.17Y-126.48
X182.17Y-130.98
X188.51Y-89.65
X188.51Y-94.15
X188.67Y-116.32
X188.67Y-120.82
X188.67Y-126.48
X188.67Y-130.98
T6
X104.69Y-85.84
X111.7Y-85.84
X181.5Y-85.84
X188.51Y-85.84
M30
