%TF.GenerationSoftware,KiCad,Pcbnew,10.0.1*%
%TF.CreationDate,2026-04-28T20:18:45+02:00*%
%TF.ProjectId,AmigaPad,416d6967-6150-4616-942e-6b696361645f,1*%
%TF.SameCoordinates,Original*%
%TF.FileFunction,Legend,Bot*%
%TF.FilePolarity,Positive*%
%FSLAX46Y46*%
G04 Gerber Fmt 4.6, Leading zero omitted, Abs format (unit mm)*
G04 Created by KiCad (PCBNEW 10.0.1) date 2026-04-28 20:18:45*
%MOMM*%
%LPD*%
G01*
G04 APERTURE LIST*
%ADD10C,0.100000*%
%ADD11C,0.150000*%
%ADD12C,0.120000*%
G04 APERTURE END LIST*
D10*
X142429609Y-85842217D02*
X142429609Y-85508884D01*
X142953419Y-85508884D02*
X141953419Y-85508884D01*
X141953419Y-85508884D02*
X141953419Y-85985074D01*
X142953419Y-86366027D02*
X142286752Y-86366027D01*
X141953419Y-86366027D02*
X142001038Y-86318408D01*
X142001038Y-86318408D02*
X142048657Y-86366027D01*
X142048657Y-86366027D02*
X142001038Y-86413646D01*
X142001038Y-86413646D02*
X141953419Y-86366027D01*
X141953419Y-86366027D02*
X142048657Y-86366027D01*
X142953419Y-86842217D02*
X142286752Y-86842217D01*
X142477228Y-86842217D02*
X142381990Y-86889836D01*
X142381990Y-86889836D02*
X142334371Y-86937455D01*
X142334371Y-86937455D02*
X142286752Y-87032693D01*
X142286752Y-87032693D02*
X142286752Y-87127931D01*
X142905800Y-87842217D02*
X142953419Y-87746979D01*
X142953419Y-87746979D02*
X142953419Y-87556503D01*
X142953419Y-87556503D02*
X142905800Y-87461265D01*
X142905800Y-87461265D02*
X142810561Y-87413646D01*
X142810561Y-87413646D02*
X142429609Y-87413646D01*
X142429609Y-87413646D02*
X142334371Y-87461265D01*
X142334371Y-87461265D02*
X142286752Y-87556503D01*
X142286752Y-87556503D02*
X142286752Y-87746979D01*
X142286752Y-87746979D02*
X142334371Y-87842217D01*
X142334371Y-87842217D02*
X142429609Y-87889836D01*
X142429609Y-87889836D02*
X142524847Y-87889836D01*
X142524847Y-87889836D02*
X142620085Y-87413646D01*
X142858180Y-88889836D02*
X142905800Y-88842217D01*
X142905800Y-88842217D02*
X142953419Y-88699360D01*
X142953419Y-88699360D02*
X142953419Y-88604122D01*
X142953419Y-88604122D02*
X142905800Y-88461265D01*
X142905800Y-88461265D02*
X142810561Y-88366027D01*
X142810561Y-88366027D02*
X142715323Y-88318408D01*
X142715323Y-88318408D02*
X142524847Y-88270789D01*
X142524847Y-88270789D02*
X142381990Y-88270789D01*
X142381990Y-88270789D02*
X142191514Y-88318408D01*
X142191514Y-88318408D02*
X142096276Y-88366027D01*
X142096276Y-88366027D02*
X142001038Y-88461265D01*
X142001038Y-88461265D02*
X141953419Y-88604122D01*
X141953419Y-88604122D02*
X141953419Y-88699360D01*
X141953419Y-88699360D02*
X142001038Y-88842217D01*
X142001038Y-88842217D02*
X142048657Y-88889836D01*
X142953419Y-89461265D02*
X142905800Y-89366027D01*
X142905800Y-89366027D02*
X142810561Y-89318408D01*
X142810561Y-89318408D02*
X141953419Y-89318408D01*
X142953419Y-89842218D02*
X141953419Y-89842218D01*
X142572466Y-89937456D02*
X142953419Y-90223170D01*
X142286752Y-90223170D02*
X142667704Y-89842218D01*
X144620419Y-85366027D02*
X145620419Y-85699360D01*
X145620419Y-85699360D02*
X144620419Y-86032693D01*
X145525180Y-86937455D02*
X145572800Y-86889836D01*
X145572800Y-86889836D02*
X145620419Y-86746979D01*
X145620419Y-86746979D02*
X145620419Y-86651741D01*
X145620419Y-86651741D02*
X145572800Y-86508884D01*
X145572800Y-86508884D02*
X145477561Y-86413646D01*
X145477561Y-86413646D02*
X145382323Y-86366027D01*
X145382323Y-86366027D02*
X145191847Y-86318408D01*
X145191847Y-86318408D02*
X145048990Y-86318408D01*
X145048990Y-86318408D02*
X144858514Y-86366027D01*
X144858514Y-86366027D02*
X144763276Y-86413646D01*
X144763276Y-86413646D02*
X144668038Y-86508884D01*
X144668038Y-86508884D02*
X144620419Y-86651741D01*
X144620419Y-86651741D02*
X144620419Y-86746979D01*
X144620419Y-86746979D02*
X144668038Y-86889836D01*
X144668038Y-86889836D02*
X144715657Y-86937455D01*
X145525180Y-87937455D02*
X145572800Y-87889836D01*
X145572800Y-87889836D02*
X145620419Y-87746979D01*
X145620419Y-87746979D02*
X145620419Y-87651741D01*
X145620419Y-87651741D02*
X145572800Y-87508884D01*
X145572800Y-87508884D02*
X145477561Y-87413646D01*
X145477561Y-87413646D02*
X145382323Y-87366027D01*
X145382323Y-87366027D02*
X145191847Y-87318408D01*
X145191847Y-87318408D02*
X145048990Y-87318408D01*
X145048990Y-87318408D02*
X144858514Y-87366027D01*
X144858514Y-87366027D02*
X144763276Y-87413646D01*
X144763276Y-87413646D02*
X144668038Y-87508884D01*
X144668038Y-87508884D02*
X144620419Y-87651741D01*
X144620419Y-87651741D02*
X144620419Y-87746979D01*
X144620419Y-87746979D02*
X144668038Y-87889836D01*
X144668038Y-87889836D02*
X144715657Y-87937455D01*
X147462038Y-86032693D02*
X147414419Y-85937455D01*
X147414419Y-85937455D02*
X147414419Y-85794598D01*
X147414419Y-85794598D02*
X147462038Y-85651741D01*
X147462038Y-85651741D02*
X147557276Y-85556503D01*
X147557276Y-85556503D02*
X147652514Y-85508884D01*
X147652514Y-85508884D02*
X147842990Y-85461265D01*
X147842990Y-85461265D02*
X147985847Y-85461265D01*
X147985847Y-85461265D02*
X148176323Y-85508884D01*
X148176323Y-85508884D02*
X148271561Y-85556503D01*
X148271561Y-85556503D02*
X148366800Y-85651741D01*
X148366800Y-85651741D02*
X148414419Y-85794598D01*
X148414419Y-85794598D02*
X148414419Y-85889836D01*
X148414419Y-85889836D02*
X148366800Y-86032693D01*
X148366800Y-86032693D02*
X148319180Y-86080312D01*
X148319180Y-86080312D02*
X147985847Y-86080312D01*
X147985847Y-86080312D02*
X147985847Y-85889836D01*
X148414419Y-86508884D02*
X147414419Y-86508884D01*
X147414419Y-86508884D02*
X148414419Y-87080312D01*
X148414419Y-87080312D02*
X147414419Y-87080312D01*
X148414419Y-87556503D02*
X147414419Y-87556503D01*
X147414419Y-87556503D02*
X147414419Y-87794598D01*
X147414419Y-87794598D02*
X147462038Y-87937455D01*
X147462038Y-87937455D02*
X147557276Y-88032693D01*
X147557276Y-88032693D02*
X147652514Y-88080312D01*
X147652514Y-88080312D02*
X147842990Y-88127931D01*
X147842990Y-88127931D02*
X147985847Y-88127931D01*
X147985847Y-88127931D02*
X148176323Y-88080312D01*
X148176323Y-88080312D02*
X148271561Y-88032693D01*
X148271561Y-88032693D02*
X148366800Y-87937455D01*
X148366800Y-87937455D02*
X148414419Y-87794598D01*
X148414419Y-87794598D02*
X148414419Y-87556503D01*
X151160800Y-85461265D02*
X151208419Y-85604122D01*
X151208419Y-85604122D02*
X151208419Y-85842217D01*
X151208419Y-85842217D02*
X151160800Y-85937455D01*
X151160800Y-85937455D02*
X151113180Y-85985074D01*
X151113180Y-85985074D02*
X151017942Y-86032693D01*
X151017942Y-86032693D02*
X150922704Y-86032693D01*
X150922704Y-86032693D02*
X150827466Y-85985074D01*
X150827466Y-85985074D02*
X150779847Y-85937455D01*
X150779847Y-85937455D02*
X150732228Y-85842217D01*
X150732228Y-85842217D02*
X150684609Y-85651741D01*
X150684609Y-85651741D02*
X150636990Y-85556503D01*
X150636990Y-85556503D02*
X150589371Y-85508884D01*
X150589371Y-85508884D02*
X150494133Y-85461265D01*
X150494133Y-85461265D02*
X150398895Y-85461265D01*
X150398895Y-85461265D02*
X150303657Y-85508884D01*
X150303657Y-85508884D02*
X150256038Y-85556503D01*
X150256038Y-85556503D02*
X150208419Y-85651741D01*
X150208419Y-85651741D02*
X150208419Y-85889836D01*
X150208419Y-85889836D02*
X150256038Y-86032693D01*
X151160800Y-86842217D02*
X151208419Y-86746979D01*
X151208419Y-86746979D02*
X151208419Y-86556503D01*
X151208419Y-86556503D02*
X151160800Y-86461265D01*
X151160800Y-86461265D02*
X151065561Y-86413646D01*
X151065561Y-86413646D02*
X150684609Y-86413646D01*
X150684609Y-86413646D02*
X150589371Y-86461265D01*
X150589371Y-86461265D02*
X150541752Y-86556503D01*
X150541752Y-86556503D02*
X150541752Y-86746979D01*
X150541752Y-86746979D02*
X150589371Y-86842217D01*
X150589371Y-86842217D02*
X150684609Y-86889836D01*
X150684609Y-86889836D02*
X150779847Y-86889836D01*
X150779847Y-86889836D02*
X150875085Y-86413646D01*
X151208419Y-87318408D02*
X150541752Y-87318408D01*
X150732228Y-87318408D02*
X150636990Y-87366027D01*
X150636990Y-87366027D02*
X150589371Y-87413646D01*
X150589371Y-87413646D02*
X150541752Y-87508884D01*
X150541752Y-87508884D02*
X150541752Y-87604122D01*
X151208419Y-87937456D02*
X150208419Y-87937456D01*
X150208419Y-87937456D02*
X150208419Y-88175551D01*
X150208419Y-88175551D02*
X150256038Y-88318408D01*
X150256038Y-88318408D02*
X150351276Y-88413646D01*
X150351276Y-88413646D02*
X150446514Y-88461265D01*
X150446514Y-88461265D02*
X150636990Y-88508884D01*
X150636990Y-88508884D02*
X150779847Y-88508884D01*
X150779847Y-88508884D02*
X150970323Y-88461265D01*
X150970323Y-88461265D02*
X151065561Y-88413646D01*
X151065561Y-88413646D02*
X151160800Y-88318408D01*
X151160800Y-88318408D02*
X151208419Y-88175551D01*
X151208419Y-88175551D02*
X151208419Y-87937456D01*
X151208419Y-89366027D02*
X150684609Y-89366027D01*
X150684609Y-89366027D02*
X150589371Y-89318408D01*
X150589371Y-89318408D02*
X150541752Y-89223170D01*
X150541752Y-89223170D02*
X150541752Y-89032694D01*
X150541752Y-89032694D02*
X150589371Y-88937456D01*
X151160800Y-89366027D02*
X151208419Y-89270789D01*
X151208419Y-89270789D02*
X151208419Y-89032694D01*
X151208419Y-89032694D02*
X151160800Y-88937456D01*
X151160800Y-88937456D02*
X151065561Y-88889837D01*
X151065561Y-88889837D02*
X150970323Y-88889837D01*
X150970323Y-88889837D02*
X150875085Y-88937456D01*
X150875085Y-88937456D02*
X150827466Y-89032694D01*
X150827466Y-89032694D02*
X150827466Y-89270789D01*
X150827466Y-89270789D02*
X150779847Y-89366027D01*
X150541752Y-89699361D02*
X150541752Y-90080313D01*
X150208419Y-89842218D02*
X151065561Y-89842218D01*
X151065561Y-89842218D02*
X151160800Y-89889837D01*
X151160800Y-89889837D02*
X151208419Y-89985075D01*
X151208419Y-89985075D02*
X151208419Y-90080313D01*
X151208419Y-90842218D02*
X150684609Y-90842218D01*
X150684609Y-90842218D02*
X150589371Y-90794599D01*
X150589371Y-90794599D02*
X150541752Y-90699361D01*
X150541752Y-90699361D02*
X150541752Y-90508885D01*
X150541752Y-90508885D02*
X150589371Y-90413647D01*
X151160800Y-90842218D02*
X151208419Y-90746980D01*
X151208419Y-90746980D02*
X151208419Y-90508885D01*
X151208419Y-90508885D02*
X151160800Y-90413647D01*
X151160800Y-90413647D02*
X151065561Y-90366028D01*
X151065561Y-90366028D02*
X150970323Y-90366028D01*
X150970323Y-90366028D02*
X150875085Y-90413647D01*
X150875085Y-90413647D02*
X150827466Y-90508885D01*
X150827466Y-90508885D02*
X150827466Y-90746980D01*
X150827466Y-90746980D02*
X150779847Y-90842218D01*
D11*
X116659523Y-83707200D02*
X116516666Y-83754819D01*
X116516666Y-83754819D02*
X116278571Y-83754819D01*
X116278571Y-83754819D02*
X116183333Y-83707200D01*
X116183333Y-83707200D02*
X116135714Y-83659580D01*
X116135714Y-83659580D02*
X116088095Y-83564342D01*
X116088095Y-83564342D02*
X116088095Y-83469104D01*
X116088095Y-83469104D02*
X116135714Y-83373866D01*
X116135714Y-83373866D02*
X116183333Y-83326247D01*
X116183333Y-83326247D02*
X116278571Y-83278628D01*
X116278571Y-83278628D02*
X116469047Y-83231009D01*
X116469047Y-83231009D02*
X116564285Y-83183390D01*
X116564285Y-83183390D02*
X116611904Y-83135771D01*
X116611904Y-83135771D02*
X116659523Y-83040533D01*
X116659523Y-83040533D02*
X116659523Y-82945295D01*
X116659523Y-82945295D02*
X116611904Y-82850057D01*
X116611904Y-82850057D02*
X116564285Y-82802438D01*
X116564285Y-82802438D02*
X116469047Y-82754819D01*
X116469047Y-82754819D02*
X116230952Y-82754819D01*
X116230952Y-82754819D02*
X116088095Y-82802438D01*
X115754761Y-82754819D02*
X115516666Y-83754819D01*
X115516666Y-83754819D02*
X115326190Y-83040533D01*
X115326190Y-83040533D02*
X115135714Y-83754819D01*
X115135714Y-83754819D02*
X114897619Y-82754819D01*
X113992857Y-83754819D02*
X114564285Y-83754819D01*
X114278571Y-83754819D02*
X114278571Y-82754819D01*
X114278571Y-82754819D02*
X114373809Y-82897676D01*
X114373809Y-82897676D02*
X114469047Y-82992914D01*
X114469047Y-82992914D02*
X114564285Y-83040533D01*
X113659523Y-82754819D02*
X113040476Y-82754819D01*
X113040476Y-82754819D02*
X113373809Y-83135771D01*
X113373809Y-83135771D02*
X113230952Y-83135771D01*
X113230952Y-83135771D02*
X113135714Y-83183390D01*
X113135714Y-83183390D02*
X113088095Y-83231009D01*
X113088095Y-83231009D02*
X113040476Y-83326247D01*
X113040476Y-83326247D02*
X113040476Y-83564342D01*
X113040476Y-83564342D02*
X113088095Y-83659580D01*
X113088095Y-83659580D02*
X113135714Y-83707200D01*
X113135714Y-83707200D02*
X113230952Y-83754819D01*
X113230952Y-83754819D02*
X113516666Y-83754819D01*
X113516666Y-83754819D02*
X113611904Y-83707200D01*
X113611904Y-83707200D02*
X113659523Y-83659580D01*
X180159523Y-83707200D02*
X180016666Y-83754819D01*
X180016666Y-83754819D02*
X179778571Y-83754819D01*
X179778571Y-83754819D02*
X179683333Y-83707200D01*
X179683333Y-83707200D02*
X179635714Y-83659580D01*
X179635714Y-83659580D02*
X179588095Y-83564342D01*
X179588095Y-83564342D02*
X179588095Y-83469104D01*
X179588095Y-83469104D02*
X179635714Y-83373866D01*
X179635714Y-83373866D02*
X179683333Y-83326247D01*
X179683333Y-83326247D02*
X179778571Y-83278628D01*
X179778571Y-83278628D02*
X179969047Y-83231009D01*
X179969047Y-83231009D02*
X180064285Y-83183390D01*
X180064285Y-83183390D02*
X180111904Y-83135771D01*
X180111904Y-83135771D02*
X180159523Y-83040533D01*
X180159523Y-83040533D02*
X180159523Y-82945295D01*
X180159523Y-82945295D02*
X180111904Y-82850057D01*
X180111904Y-82850057D02*
X180064285Y-82802438D01*
X180064285Y-82802438D02*
X179969047Y-82754819D01*
X179969047Y-82754819D02*
X179730952Y-82754819D01*
X179730952Y-82754819D02*
X179588095Y-82802438D01*
X179254761Y-82754819D02*
X179016666Y-83754819D01*
X179016666Y-83754819D02*
X178826190Y-83040533D01*
X178826190Y-83040533D02*
X178635714Y-83754819D01*
X178635714Y-83754819D02*
X178397619Y-82754819D01*
X177492857Y-83754819D02*
X178064285Y-83754819D01*
X177778571Y-83754819D02*
X177778571Y-82754819D01*
X177778571Y-82754819D02*
X177873809Y-82897676D01*
X177873809Y-82897676D02*
X177969047Y-82992914D01*
X177969047Y-82992914D02*
X178064285Y-83040533D01*
X176635714Y-83088152D02*
X176635714Y-83754819D01*
X176873809Y-82707200D02*
X177111904Y-83421485D01*
X177111904Y-83421485D02*
X176492857Y-83421485D01*
%TO.C,SW13*%
D12*
X104340000Y-82450000D02*
X104340000Y-84550000D01*
X104340000Y-87150000D02*
X104340000Y-87660000D01*
X104860000Y-84320000D02*
X104860000Y-84550000D01*
X104860000Y-87150000D02*
X104860000Y-87660000D01*
X104860000Y-87660000D02*
X104340000Y-87660000D01*
X105400000Y-84320000D02*
X104860000Y-84320000D01*
X109900000Y-84320000D02*
X106500000Y-84320000D01*
X111540000Y-84320000D02*
X111000000Y-84320000D01*
X111540000Y-84320000D02*
X111540000Y-84550000D01*
X111540000Y-87150000D02*
X111540000Y-87660000D01*
X112060000Y-82450000D02*
X112060000Y-84550000D01*
X112060000Y-87150000D02*
X112060000Y-87660000D01*
X112060000Y-87660000D02*
X111540000Y-87660000D01*
%TO.C,SW14*%
X181150000Y-82450000D02*
X181150000Y-84550000D01*
X181150000Y-87150000D02*
X181150000Y-87660000D01*
X181670000Y-84320000D02*
X181670000Y-84550000D01*
X181670000Y-87150000D02*
X181670000Y-87660000D01*
X181670000Y-87660000D02*
X181150000Y-87660000D01*
X182210000Y-84320000D02*
X181670000Y-84320000D01*
X186710000Y-84320000D02*
X183310000Y-84320000D01*
X188350000Y-84320000D02*
X187810000Y-84320000D01*
X188350000Y-84320000D02*
X188350000Y-84550000D01*
X188350000Y-87150000D02*
X188350000Y-87660000D01*
X188870000Y-82450000D02*
X188870000Y-84550000D01*
X188870000Y-87150000D02*
X188870000Y-87660000D01*
X188870000Y-87660000D02*
X188350000Y-87660000D01*
%TD*%
M02*
