%TF.GenerationSoftware,KiCad,Pcbnew,10.0.1*%
%TF.CreationDate,2026-04-28T20:18:45+02:00*%
%TF.ProjectId,AmigaPad,416d6967-6150-4616-942e-6b696361645f,1*%
%TF.SameCoordinates,Original*%
%TF.FileFunction,Profile,NP*%
%FSLAX46Y46*%
G04 Gerber Fmt 4.6, Leading zero omitted, Abs format (unit mm)*
G04 Created by KiCad (PCBNEW 10.0.1) date 2026-04-28 20:18:45*
%MOMM*%
%LPD*%
G01*
G04 APERTURE LIST*
%TA.AperFunction,Profile*%
%ADD10C,0.200000*%
%TD*%
G04 APERTURE END LIST*
D10*
X96560000Y-85760000D02*
G75*
G02*
X101560000Y-80760000I5000000J0D01*
G01*
X96560000Y-135760000D02*
X96560000Y-85760000D01*
X101560000Y-80760000D02*
X191560000Y-80760000D01*
X103060000Y-85760000D02*
G75*
G02*
X100060000Y-85760000I-1500000J0D01*
G01*
X100060000Y-85760000D02*
G75*
G02*
X103060000Y-85760000I1500000J0D01*
G01*
X103060000Y-135760000D02*
G75*
G02*
X100060000Y-135760000I-1500000J0D01*
G01*
X100060000Y-135760000D02*
G75*
G02*
X103060000Y-135760000I1500000J0D01*
G01*
X101560000Y-140760000D02*
G75*
G02*
X96560000Y-135760000I0J5000000D01*
G01*
X135560000Y-85760000D02*
G75*
G02*
X132560000Y-85760000I-1500000J0D01*
G01*
X132560000Y-85760000D02*
G75*
G02*
X135560000Y-85760000I1500000J0D01*
G01*
X160560000Y-85760000D02*
G75*
G02*
X157560000Y-85760000I-1500000J0D01*
G01*
X157560000Y-85760000D02*
G75*
G02*
X160560000Y-85760000I1500000J0D01*
G01*
X191560000Y-80760000D02*
G75*
G02*
X196560000Y-85760000I0J-5000000D01*
G01*
X193060000Y-85760000D02*
G75*
G02*
X190060000Y-85760000I-1500000J0D01*
G01*
X190060000Y-85760000D02*
G75*
G02*
X193060000Y-85760000I1500000J0D01*
G01*
X193060000Y-135760000D02*
G75*
G02*
X190060000Y-135760000I-1500000J0D01*
G01*
X190060000Y-135760000D02*
G75*
G02*
X193060000Y-135760000I1500000J0D01*
G01*
X191560000Y-140760000D02*
X101560000Y-140760000D01*
X196560000Y-85760000D02*
X196560000Y-135760000D01*
X196560000Y-135760000D02*
G75*
G02*
X191560000Y-140760000I-5000000J0D01*
G01*
M02*
